<svg xmlns="http://www.w3.org/2000/svg" aria-hidden="true" overflow="hidden" style="position:absolute;width:0;height:0"><defs><symbol id="icon-facebook" viewBox="0 0 18 32"><path d="M13.329 5.313h2.921V.225C15.746.156 14.013 0 11.994 0 7.782 0 4.897 2.649 4.897 7.519V12H.249v5.688h4.648V32h5.699V17.689h4.46l.708-5.688h-5.169V8.082c.001-1.644.444-2.769 2.735-2.769z"/></symbol><symbol id="icon-instagram" viewBox="0 0 32 32"><path d="M31.969 9.408c-.075-1.7-.35-2.869-.744-3.882a7.803 7.803 0 0 0-1.85-2.838A7.867 7.867 0 0 0 26.543.844C25.524.45 24.362.175 22.661.1 20.948.019 20.404 0 16.06 0s-4.888.019-6.595.094c-1.7.075-2.869.35-3.882.744a7.803 7.803 0 0 0-2.838 1.85A7.867 7.867 0 0 0 .901 5.52C.507 6.539.232 7.702.157 9.402c-.081 1.713-.1 2.257-.1 6.601s.019 4.888.094 6.595c.075 1.7.35 2.869.744 3.882a7.895 7.895 0 0 0 1.85 2.838 7.867 7.867 0 0 0 2.832 1.844c1.019.394 2.182.669 3.882.744 1.706.075 2.25.094 6.595.094s4.888-.018 6.595-.094c1.7-.075 2.869-.35 3.882-.744a8.181 8.181 0 0 0 4.682-4.682c.394-1.019.669-2.182.744-3.882.075-1.707.094-2.251.094-6.595s-.006-4.888-.081-6.595zm-2.882 13.065c-.069 1.563-.331 2.407-.55 2.969a5.307 5.307 0 0 1-3.038 3.038c-.563.219-1.413.481-2.969.55-1.688.075-2.194.094-6.464.094s-4.782-.018-6.464-.094c-1.563-.069-2.407-.331-2.969-.55a4.926 4.926 0 0 1-1.838-1.194 4.974 4.974 0 0 1-1.194-1.838c-.219-.563-.481-1.413-.55-2.969-.075-1.688-.094-2.194-.094-6.464s.019-4.782.094-6.464c.069-1.563.331-2.407.55-2.969a4.868 4.868 0 0 1 1.2-1.838A4.974 4.974 0 0 1 6.639 3.55c.563-.219 1.413-.481 2.969-.55 1.688-.075 2.194-.094 6.464-.094 4.276 0 4.782.019 6.464.094 1.563.069 2.407.331 2.969.55a4.914 4.914 0 0 1 1.838 1.194 4.974 4.974 0 0 1 1.194 1.838c.219.563.481 1.413.55 2.969.075 1.688.094 2.194.094 6.464s-.019 4.77-.094 6.457z"/><path d="M16.059 7.782c-4.538 0-8.22 3.682-8.22 8.22s3.682 8.22 8.22 8.22c4.539 0 8.22-3.682 8.22-8.22s-3.682-8.22-8.22-8.22zm0 13.553a5.333 5.333 0 0 1 0-10.664 5.333 5.333 0 0 1 0 10.664zM26.524 7.457a1.919 1.919 0 1 1-3.838 0 1.919 1.919 0 0 1 3.838 0z"/></symbol><symbol id="icon-linkedin" viewBox="0 0 32 32"><path d="M31.992 32v-.001H32V20.263c0-5.741-1.236-10.164-7.948-10.164-3.227 0-5.392 1.771-6.276 3.449h-.093v-2.913h-6.364v21.364h6.627V21.42c0-2.785.528-5.479 3.977-5.479 3.399 0 3.449 3.179 3.449 5.657v10.401h6.62zM.528 10.636h6.635V32H.528V10.636zM3.843 0C1.722 0 0 1.721 0 3.843s1.721 3.879 3.843 3.879c2.121 0 3.843-1.757 3.843-3.879A3.846 3.846 0 0 0 3.843 0z"/></symbol><symbol id="icon-twitter" viewBox="0 0 32 32"><path d="M32 6.078c-1.19.522-2.458.868-3.78 1.036a6.523 6.523 0 0 0 2.886-3.626 13.11 13.11 0 0 1-4.16 1.588A6.574 6.574 0 0 0 22.154 3c-3.632 0-6.556 2.948-6.556 6.562 0 .52.044 1.02.152 1.496-5.454-.266-10.28-2.88-13.522-6.862a6.605 6.605 0 0 0-.898 3.316 6.57 6.57 0 0 0 2.914 5.452 6.479 6.479 0 0 1-2.964-.808v.072c0 3.188 2.274 5.836 5.256 6.446a6.548 6.548 0 0 1-1.72.216 5.8 5.8 0 0 1-1.242-.112c.85 2.598 3.262 4.508 6.13 4.57a13.182 13.182 0 0 1-8.134 2.798c-.538 0-1.054-.024-1.57-.09A18.469 18.469 0 0 0 10.064 29c12.072 0 18.672-10 18.672-18.668 0-.29-.01-.57-.024-.848A13.087 13.087 0 0 0 32 6.078z"/></symbol><symbol id="icon-antenna" viewBox="0 0 32 32"><path fill="var(--color1, #2e2f42)" d="m30.773 22.098-8.443-8.505.937-4.615c.242.094.499.144.758.146h.006a2.159 2.159 0 1 0-2.008-1.435l-4.96.605L8.972.161a.534.534 0 0 0-.377-.16.532.532 0 0 0-.373.155L6.709 1.66a.534.534 0 0 0 0 .754l.814.826a14.943 14.943 0 0 0 2.519 17.663.513.513 0 0 0 .146.098c-.034.18-.051.364-.052.547v6.187h-6.4a2.67 2.67 0 0 0-2.667 2.667v1.067c0 .295.239.533.533.533h24.533a.533.533 0 0 0 .533-.533v-1.067a2.67 2.67 0 0 0-2.667-2.667h-6.4v-2.742a15.09 15.09 0 0 0 3.049.32 14.854 14.854 0 0 0 7.04-1.783l.818.823a.534.534 0 0 0 .377.16.532.532 0 0 0 .373-.155l1.513-1.504a.534.534 0 0 0 0-.754zM23.28 6.233a1.067 1.067 0 1 1 .753 1.822h-.003a1.067 1.067 0 0 1-.747-1.823h-.002zm-1.256 3.505-.598 2.946-1.175-1.182 1.774-1.763zm-.605-.902-1.92 1.909-1.485-1.493 3.405-.415zM24.004 28.8a1.6 1.6 0 0 1 1.6 1.6v.533H2.137V30.4a1.6 1.6 0 0 1 1.6-1.6h20.267zm-7.467-2.133v1.067h-5.333v-1.067h5.333zM11.204 25.6v-4.053c0-1.294 1.196-2.347 2.667-2.347s2.667 1.053 2.667 2.347V25.6h-5.333zm6.4-1.696v-2.357c0-1.882-1.675-3.413-3.733-3.413a3.8 3.8 0 0 0-3.281 1.786A13.87 13.87 0 0 1 8.311 4.033l18.602 18.708a13.818 13.818 0 0 1-9.309 1.163zm11.289-.684L7.836 2.039l.755-.752 7.935 7.98c.004 0 .006.007.01.01l13.115 13.191-.757.752z"/><path fill="var(--color2, #4d5ae5)" d="M13.876 20.267h-.005a1.6 1.6 0 1 0-.004 3.2h.005a1.6 1.6 0 1 0 .004-3.2zm.373 1.978a.534.534 0 0 1-.752-.756.534.534 0 0 1 .373-.155.534.534 0 0 1 .374.911h.005z"/></symbol><symbol id="icon-astronaut" viewBox="0 0 32 32"><path fill="var(--color2, #4d5ae5)" d="M31.974 4.524a.534.534 0 0 0-.43-.363l-1.91-.278-.855-1.731c-.179-.365-.777-.365-.956 0l-.855 1.731-1.91.278a.535.535 0 0 0-.296.91l1.383 1.348-.326 1.903c-.034.2.048.402.212.522a.53.53 0 0 0 .562.04l1.709-.899 1.709.899a.536.536 0 0 0 .775-.563l-.326-1.903 1.383-1.348a.536.536 0 0 0 .135-.547zm-2.463 1.327a.534.534 0 0 0-.153.472l.191 1.114-1-.526a.533.533 0 0 0-.498 0l-1.001.526.191-1.114a.534.534 0 0 0-.153-.472l-.81-.789 1.119-.163a.532.532 0 0 0 .402-.292l.5-1.013.5 1.013a.535.535 0 0 0 .402.292l1.119.163-.809.789zM26.133 20.522h-1.067v1.067h1.067v-1.067zM26.133 22.656h-1.067v1.067h1.067v-1.067zM27.2 21.589h-1.067v1.067H27.2v-1.067zM25.067 21.589H24v1.067h1.067v-1.067zM22.4 26.389h-1.067v1.067H22.4v-1.067zM22.4 28.522h-1.067v1.067H22.4v-1.067zM23.467 27.456H22.4v1.067h1.067v-1.067zM21.333 27.456h-1.067v1.067h1.067v-1.067zM16 24.256h-1.067v1.067H16v-1.067zM16 26.389h-1.067v1.067H16v-1.067zM17.067 25.322H16v1.067h1.067v-1.067zM14.933 25.322h-1.067v1.067h1.067v-1.067zM5.867 6.122H4.8v1.067h1.067V6.122zM5.867 8.255H4.8v1.067h1.067V8.255z"/><path fill="var(--color2, #4d5ae5)" d="M6.933 7.189H5.866v1.067h1.067V7.189zM4.8 7.189H3.733v1.067H4.8V7.189z"/><path fill="var(--color1, #2e2f42)" d="M24.715 14.159a1.775 1.775 0 0 0-1.188-.705 1.778 1.778 0 0 0-1.34.352l-1.252.96-1.898 1.417-1.358-.541c2.421-1.086 4.114-3.508 4.114-6.32 0-3.823-3.123-6.933-6.961-6.933s-6.961 3.11-6.961 6.933a6.86 6.86 0 0 0 1.12 3.758l-2.764-.024h-.005c-.009 0-.015.004-.023.005a.515.515 0 0 0-.155.031l-.038.013c-.006.003-.013.003-.019.006l-3.233 1.596-.001.001-1.893.911a.397.397 0 0 0-.063.035 1.779 1.779 0 0 0-.598 2.295c.22.429.595.745 1.056.889a1.776 1.776 0 0 0 1.378-.128l1.388-.738 2.264-1.169 1.357-.008L2.2 22.211l-.002.001-1.339 1.333c-.316.315-.49.732-.49 1.178s.174.863.49 1.179c.325.323.752.485 1.179.485s.854-.162 1.18-.485l1.314-1.309 1.741-1.3.901.897-1.762 1.754-.002.001-1.339 1.333c-.316.315-.49.732-.49 1.178s.174.863.49 1.179c.325.323.753.485 1.18.485s.855-.162 1.18-.485l3.482-3.467.001-.002 1.01-1-.004-.004c.006-.006.015-.009.022-.015l5.166-5.658 3.471.494a.52.52 0 0 0 .262-.033c.018-.006.033-.015.05-.023.019-.01.039-.015.058-.027l3.213-2.133c.012-.008.018-.021.029-.029.013-.01.029-.014.041-.026l1.271-1.191c.662-.62.753-1.635.212-2.362zM2.13 17.77a.714.714 0 0 1-.558.052.717.717 0 0 1-.213-1.26l1.314-.632.449 1.313-.992.527zm3.498-1.828-1.548.8-.439-1.283 2.027-1.001-.04 1.484zm15.099-6.62a5.79 5.79 0 0 1-.599 2.559l-4.181-1.899a1.863 1.863 0 0 0-.788-1.388l1.464-4.86c2.378.756 4.105 2.974 4.105 5.588zm-11.789 0c0-3.235 2.644-5.867 5.894-5.867.253 0 .5.021.745.052l-1.432 4.754c-.019-.001-.037-.006-.057-.006-1.033 0-1.873.837-1.873 1.867s.84 1.867 1.873 1.867c.694 0 1.294-.383 1.618-.945l3.862 1.755a5.894 5.894 0 0 1-4.737 2.39c-3.25 0-5.894-2.632-5.894-5.867zm5.956.8c0 .441-.362.8-.806.8s-.806-.359-.806-.8c0-.441.362-.8.806-.8s.806.359.806.8zM2.465 25.146a.608.608 0 0 1-.854.001.592.592 0 0 1 0-.844l.962-.958.851.848-.959.955zm3.214 3.734a.608.608 0 0 1-.855.001.592.592 0 0 1 0-.844l.963-.959.852.848-.96.955zm3.481-3.469-.002.001-1.765 1.76-.852-.848 1.763-1.755.002-.001c.04-.04.065-.088.09-.135.007-.014.02-.026.026-.04.017-.041.019-.085.026-.129.003-.025.014-.047.014-.073 0-.036-.013-.07-.02-.106-.006-.032-.006-.065-.019-.095a.55.55 0 0 0-.091-.138c-.01-.012-.014-.027-.025-.038h-.001l-.001-.002-1.607-1.6c-.017-.017-.039-.024-.058-.038a.507.507 0 0 0-.087-.058.515.515 0 0 0-.093-.033.507.507 0 0 0-.103-.02.5.5 0 0 0-.095.005.53.53 0 0 0-.104.02.477.477 0 0 0-.094.045c-.02.011-.042.015-.061.029L4.23 23.486l-.901-.897 2.399-2.386 4.361 4.289-.928.919zm6.819-7.017c-.015-.002-.03.004-.045.003a.556.556 0 0 0-.3.075.492.492 0 0 0-.083.061c-.013.011-.028.017-.04.029l-4.698 5.146-4.328-4.257 2.833-2.818a.534.534 0 0 0-.379-.911v-.001l-2.219.013.028-1.607 3.104.027a6.947 6.947 0 0 0 4.981 2.101c.437 0 .864-.045 1.279-.123.04.032.079.065.13.085l2.41.96.152.758.178.885-3.003-.427zm4.041.178-.313-1.558 1.446-1.08.947 1.257-2.08 1.381zm3.754-2.831-.838.785-.931-1.236.831-.637a.735.735 0 0 1 .543-.143.718.718 0 0 1 .48.284.713.713 0 0 1-.085.947z"/><path fill="var(--color1, #2e2f42)" d="m13.602 18.544-2.143-2.133a.534.534 0 0 0-.753 0l-2.142 2.133a.537.537 0 0 0 0 .756l2.142 2.133a.536.536 0 0 0 .753 0l2.143-2.133a.535.535 0 0 0 0-.756zm-2.519 1.759-1.387-1.381 1.387-1.381 1.387 1.381-1.387 1.381zM17.164 5.071l-.258 1.036c.071.018 1.738.452 1.738 2.149h1.067c0-2.017-1.666-2.965-2.547-3.185zM19.711 9.322h-1.067v1.067h1.067V9.322z"/></symbol><symbol id="icon-clock" viewBox="0 0 32 32"><path fill="var(--color1, #2e2f42)" d="M31.297 15.301C31.295 6.849 24.442-.002 15.989 0S.686 6.855.688 15.308a15.304 15.304 0 0 0 10.649 14.576.662.662 0 0 0 .529-.065.637.637 0 0 0 .283-.356l3.865-12.25a1.912 1.912 0 1 0-.84-3.635l-5.106-5.107a.637.637 0 0 0-.902.902l5.103 5.109a1.876 1.876 0 0 0 .536 2.309l-3.683 11.673C3.844 25.783.118 17.71 2.799 10.432S13.553-.572 20.831 2.109c7.278 2.681 11.004 10.754 8.323 18.032a14.042 14.042 0 0 1-7.462 7.973l-.398-1.874a.637.637 0 0 0-1.049-.344l-3.837 3.426a.637.637 0 0 0 .231 1.084l4.899 1.564a.638.638 0 0 0 .819-.74l-.391-1.839a15.255 15.255 0 0 0 9.329-14.089zm-15.305-.637a.638.638 0 1 1 0 1.277.638.638 0 0 1 0-1.277zm2.101 14.864 2.184-1.948.603 2.84-2.787-.892z"/><path fill="var(--color2, #4d5ae5)" d="M15.354 3.185V4.46a.638.638 0 1 0 1.276 0V3.185a.638.638 0 0 0-1.276 0zM3.876 14.664a.638.638 0 0 0 0 1.276h1.275a.638.638 0 1 0 0-1.276H3.876zM28.108 15.939a.638.638 0 1 0 0-1.276h-1.275a.638.638 0 0 0 0 1.276h1.275z"/></symbol><symbol id="icon-diagram" viewBox="0 0 32 32"><path fill="var(--color2, #4d5ae5)" d="M14.925 14.965h1.066v4.798h-1.066v-4.797zM19.19 17.097h1.066v2.665H19.19v-2.665zM10.661 18.696h1.066v1.066h-1.066v-1.066zM7.463 18.163h1.066v1.599H7.463v-1.599z"/><path fill="var(--color1, #2e2f42)" d="M1.599 28.291h25.587a1.6 1.6 0 0 0 1.599-1.599V24.56a1.6 1.6 0 0 0-1.599-1.599h-.533V9.668L29.681 6.8a1.608 1.608 0 1 0-.746-.763L26.654 8.2V6.97a1.6 1.6 0 0 0-1.599-1.599H3.733A1.6 1.6 0 0 0 2.134 6.97v15.992h-.533a1.6 1.6 0 0 0-1.599 1.599v2.132a1.6 1.6 0 0 0 1.599 1.599zM30.384 4.837a.533.533 0 1 1 0 1.067.533.533 0 0 1 0-1.067zM3.198 6.969c0-.294.239-.533.533-.533h21.322c.294 0 .533.239.533.533v2.239l-1.066 1.013V8.035a.533.533 0 0 0-.533-.533H4.797a.533.533 0 0 0-.533.533v13.326c0 .294.239.533.533.533h19.19a.533.533 0 0 0 .533-.533v-9.674l1.066-1.01v12.284H3.198V6.969zm4.798 6.93a1.598 1.598 0 1 0 1.107 2.749l1.853.93a.532.532 0 0 0 .636-.123l3.939-4.431 3.872 2.901a.533.533 0 0 0 .686-.039l3.365-3.188v8.131H5.33V8.569h18.124v2.66l-3.771 3.572-3.904-2.927a.533.533 0 0 0-.718.072l-3.993 4.493-1.493-.746c.011-.064.018-.129.02-.193a1.6 1.6 0 0 0-1.599-1.599zm.533 1.599a.533.533 0 1 1-1.067 0 .533.533 0 0 1 1.067 0zm3.198 8.529h5.331v.533a.533.533 0 0 1-.533.533h-4.264a.533.533 0 0 1-.533-.533v-.533zm-10.661.533c0-.294.239-.533.533-.533h9.062v.533a1.6 1.6 0 0 0 1.599 1.599h4.264a1.6 1.6 0 0 0 1.599-1.599v-.533h9.062c.294 0 .533.239.533.533v2.132a.533.533 0 0 1-.533.533H1.598a.533.533 0 0 1-.533-.533V24.56z"/></symbol><symbol id="icon-brand" viewBox="0 0 45 32"><path d="M3.954 26.661a.988.988 0 0 1 .259.677c.009.16-.023.321-.092.469s-.175.28-.309.387a1.872 1.872 0 0 1-1.165.312H.599v-4.293h2.006a1.85 1.85 0 0 1 1.111.285c.13.098.232.221.3.36s.098.291.089.443a.926.926 0 0 1-.233.656 1.108 1.108 0 0 1-.61.335 1.2 1.2 0 0 1 .692.367zm-2.401-.648h.857a.878.878 0 0 0 .545-.143c.064-.052.114-.118.146-.19s.045-.151.038-.229c.006-.078-.007-.155-.039-.228s-.08-.138-.143-.191a.9.9 0 0 0-.561-.145h-.843v1.126zm1.486 1.646c.069-.054.123-.121.158-.197s.05-.158.045-.239c.005-.083-.011-.166-.047-.242s-.091-.144-.161-.198a.954.954 0 0 0-.582-.155h-.899v1.181h.911a.973.973 0 0 0 .575-.149zM8.054 28.507l-1.116-1.678h-.419v1.678h-.96v-4.293h1.817c.458-.029.911.102 1.265.365.254.233.407.54.432.866s-.081.649-.297.911c-.224.231-.53.385-.867.436l1.188 1.715H8.053zm-1.535-2.263h.785c.545 0 .818-.217.818-.65.006-.088-.009-.177-.044-.26s-.088-.159-.156-.222a.911.911 0 0 0-.617-.174h-.794l.009 1.306zM13.3 27.643h-1.912l-.338.864h-1.006l1.756-4.244h1.088l1.749 4.245h-1.006l-.331-.864zm-.256-.65-.699-1.812-.699 1.812h1.398zM19.866 28.507h-.953l-2.136-2.919v2.919h-.95v-4.293h.95l2.136 2.936v-2.936h.953v4.293zM25.303 27.479a1.972 1.972 0 0 1-.862.757 3.047 3.047 0 0 1-1.339.27h-1.696v-4.293h1.696c.464-.011.923.08 1.339.264.365.166.665.427.862.749.196.349.298.735.298 1.126s-.102.777-.298 1.126zm-1.09-.103c.272-.285.421-.649.421-1.024s-.149-.739-.421-1.024a1.78 1.78 0 0 0-1.193-.365h-.662v2.779h.662c.435.025.864-.107 1.193-.365zM13.896.337s12.297 4.179 12.036 10.227v10.23s-12.287-4.181-12.031-10.229L13.896.338zM36.887 18.399c2.322-1.439 5.009-2.33 7.813-2.592v-3.202c-3.231 1.121-5.972 3.154-7.813 5.794z"/><path d="M35.492 19.363c1.901-3.446 5.196-6.105 9.208-7.43V2.706S27.188 8.66 27.558 17.272v14.564s.78-.266 2.008-.765c0-.465 0-.935.056-1.407.363-3.998 2.474-7.704 5.87-10.301z"/><path d="M33.826 24.774a13.66 13.66 0 0 1 .613-2.982c-2.115 2.243-3.395 5.026-3.662 7.958-.026.277-.04.554-.047.839a53.17 53.17 0 0 0 3.368-1.598 13.624 13.624 0 0 1-.273-4.217zM34.523 24.826a12.962 12.962 0 0 0 .217 3.819c4.785-2.577 10.161-6.56 9.953-11.372v-.419c-3.418.344-6.617 1.69-9.103 3.829a13.178 13.178 0 0 0-1.067 4.144z"/></symbol><symbol id="icon-company" viewBox="0 0 24 32"><path d="M10.172 2.319c.136 0 .281.012.427.025l.043.004c.703.05 1.401.155 2.088.315V.975a12.465 12.465 0 0 0-2.155-.343c-.276-.021-.57-.034-.871-.042h-.252a17.526 17.526 0 0 0-4.324.558A17.528 17.528 0 0 0 .54 3.014v16.739a18.635 18.635 0 0 1 4.374-1.704 19.07 19.07 0 0 1 3.671-.564h.049c.207-.011.415-.017.628-.018v-1.715c-1.61.021-3.212.234-4.772.634-.577.15-1.135.312-1.658.492l-.597.202V4.028l.255-.123a16.65 16.65 0 0 1 6.199-1.581.486.486 0 0 1 .054 0c.237-.012.476-.018.71-.018h.268c.124.003.248.006.371.014h.081zm2.971 1.726c.374.028.762.042 1.154.042a18.552 18.552 0 0 0 4.547-.583 18.73 18.73 0 0 0 4.372-1.706v16.441a17.575 17.575 0 0 1-4.59 1.866c-1.413.363-2.866.55-4.325.556a13.199 13.199 0 0 1-3.281-.387V3.727c.253.058.514.112.78.157.435.073.895.127 1.342.16zm8.367.127-.596.201c-.549.184-1.102.349-1.658.496-1.619.416-3.284.63-4.955.636-.389 0-.747-.011-1.093-.033l-.476-.031v13.426l.409.036c.379.033.769.05 1.163.05a15.856 15.856 0 0 0 3.902-.505c1.05-.263 2.071-.63 3.05-1.096l.255-.123V4.173zM1.698 25.473a.88.88 0 0 0-.663-.268.984.984 0 0 0-.383.072.842.842 0 0 0-.49.496.98.98 0 0 0-.069.37v2.236c-.005.158.025.314.088.459a.895.895 0 0 0 .224.3c.089.075.194.13.307.159.109.031.221.046.334.046a.934.934 0 0 0 .854-.585.91.91 0 0 0 .072-.357v-.25h-.585v.199a.518.518 0 0 1-.034.199.351.351 0 0 1-.085.126.422.422 0 0 1-.244.085.297.297 0 0 1-.274-.12.535.535 0 0 1-.078-.3v-2.085a.702.702 0 0 1 .072-.334.298.298 0 0 1 .286-.135.31.31 0 0 1 .261.126c.065.086.1.192.097.3v.193h.579v-.228a1.043 1.043 0 0 0-.267-.706zM5.171 25.447a1.016 1.016 0 0 0-1.323 0 .926.926 0 0 0-.227.313 1.04 1.04 0 0 0-.085.433v2.145c-.004.151.025.301.085.439.053.115.13.218.227.3a.91.91 0 0 0 .309.189c.112.041.23.062.349.063s.237-.021.349-.063a.935.935 0 0 0 .537-.489c.06-.138.089-.288.085-.439v-2.145a1.037 1.037 0 0 0-.085-.433.958.958 0 0 0-.221-.313zm-.273 2.892a.383.383 0 0 1-.116.31.427.427 0 0 1-.55 0 .385.385 0 0 1-.116-.31v-2.145a.383.383 0 0 1 .116-.31.427.427 0 0 1 .55 0 .385.385 0 0 1 .116.31v2.145zM9.732 29.297v-4.061H9.17l-.738 2.15h-.01l-.744-2.15h-.556v4.061h.58v-2.47h.01l.568 1.746h.289l.573-1.746h.01v2.47h.58zM13.028 25.52a.811.811 0 0 0-.328-.222 1.28 1.28 0 0 0-.421-.063h-.862v4.061h.579V27.71h.298c.181.008.36-.03.522-.111a.845.845 0 0 0 .318-.31.974.974 0 0 0 .133-.354c.023-.153.033-.307.031-.462a2.263 2.263 0 0 0-.057-.58.871.871 0 0 0-.213-.373zm-.298 1.239a.511.511 0 0 1-.054.211.325.325 0 0 1-.149.142.596.596 0 0 1-.273.051h-.264v-1.381h.298a.56.56 0 0 1 .261.051.33.33 0 0 1 .136.15.587.587 0 0 1 .051.226v.27c0 .095.006.192 0 .279h-.006zM15.769 25.236h-.474l-.895 4.061h.579l.17-.872h.789l.17.872h.579l-.917-4.061zm-.534 2.635.285-1.472h.01l.283 1.472h-.579zM19.507 27.682h-.01l-.874-2.446h-.556v4.061h.579v-2.442h.012l.884 2.442h.544v-4.061h-.579v2.446zM23.043 25.236l-.465 1.614h-.012l-.465-1.614h-.613l.795 2.344v1.716h.579V27.58l.795-2.344h-.613zM.084 30.443h.279v.782h.189v-.782h.277v-.16H.083v.16zM2.428 30.283l-.365.943h.201l.078-.214h.376l.081.214h.206l-.374-.943H2.43zm-.029.569.128-.349.128.349h-.256zM4.746 30.878h.218v.121a.358.358 0 0 1-.224.079.237.237 0 0 1-.2-.09.391.391 0 0 1-.07-.246c0-.21.091-.315.271-.315a.199.199 0 0 1 .213.15l.186-.036c-.04-.184-.173-.277-.4-.277a.478.478 0 0 0-.33.121.467.467 0 0 0-.136.362.52.52 0 0 0 .121.354.459.459 0 0 0 .358.137.569.569 0 0 0 .4-.15v-.372h-.409v.159zM7.112 30.283h-.191v.943h.661v-.16h-.47v-.782zM9.113 30.283h-.191v.943h.191v-.943zM11.07 30.912l-.386-.63h-.185v.943h.177v-.616l.379.616h.189v-.943h-.174v.63zM12.838 30.81h.47v-.16h-.47v-.207h.506v-.16h-.696v.943h.716v-.16h-.525v-.255zM17.127 30.654h-.371v-.372h-.189v.943h.189v-.412h.371v.412h.189v-.943h-.189v.372zM18.906 30.81h.471v-.16h-.471v-.207h.507v-.16h-.696v.943h.714v-.16h-.525v-.255zM21.319 30.81c.164-.026.247-.112.247-.262a.225.225 0 0 0-.093-.21.527.527 0 0 0-.276-.055h-.4v.943h.189v-.394h.037a.266.266 0 0 1 .118.021.193.193 0 0 1 .067.069l.206.3h.227l-.115-.184a.647.647 0 0 0-.209-.226zm-.191-.13h-.14v-.237h.149a.5.5 0 0 1 .192.022c.014.012.025.027.032.044s.01.035.01.054c-.001.018-.006.036-.015.053s-.021.03-.036.041a.52.52 0 0 1-.192.022zM23.138 30.81h.47v-.16h-.47v-.207h.507v-.16h-.698v.943h.716v-.16h-.525v-.255z"/></symbol><symbol id="icon-company2" viewBox="0 0 34 32"><path d="M5.511 30.993c.012 0 .024.003.035.007s.021.01.029.018l.165.155a1.356 1.356 0 0 1-.464.294 1.823 1.823 0 0 1-.657.106 1.764 1.764 0 0 1-.618-.099 1.357 1.357 0 0 1-.466-.278 1.248 1.248 0 0 1-.301-.43 1.402 1.402 0 0 1-.105-.551 1.33 1.33 0 0 1 .113-.553c.072-.16.181-.306.319-.43.141-.121.309-.217.495-.28.203-.067.419-.101.637-.099a1.74 1.74 0 0 1 .592.09c.163.06.313.145.443.248l-.138.166a.127.127 0 0 1-.035.03.096.096 0 0 1-.056.012.127.127 0 0 1-.06-.018l-.074-.044-.103-.056a1.28 1.28 0 0 0-.138-.055 1.468 1.468 0 0 0-.891.012 1.068 1.068 0 0 0-.359.208.96.96 0 0 0-.233.331c-.058.14-.087.288-.084.437-.002.151.026.301.084.444a.955.955 0 0 0 .571.533c.135.048.279.072.425.07a1.91 1.91 0 0 0 .251-.014 1.01 1.01 0 0 0 .544-.227.132.132 0 0 1 .078-.028zM10.272 30.215a1.32 1.32 0 0 1-.111.548c-.067.159-.173.304-.31.425s-.304.217-.487.279c-.404.132-.85.132-1.253 0a1.463 1.463 0 0 1-.484-.28 1.252 1.252 0 0 1-.313-.43 1.41 1.41 0 0 1 0-1.097c.07-.16.177-.307.313-.431.138-.117.303-.209.484-.269.403-.134.85-.134 1.253 0 .183.063.349.159.486.28a1.26 1.26 0 0 1 .422.975zm-.433 0a1.152 1.152 0 0 0-.078-.44.885.885 0 0 0-.221-.329 1.009 1.009 0 0 0-.348-.208 1.477 1.477 0 0 0-.911 0 .962.962 0 0 0-.348.208.879.879 0 0 0-.223.329 1.271 1.271 0 0 0 0 .881.89.89 0 0 0 .223.329.99.99 0 0 0 .348.206c.294.094.617.094.911 0a.972.972 0 0 0 .348-.206.927.927 0 0 0 .221-.329c.055-.142.082-.291.078-.44zM13.521 30.676l.043.099.047-.099c.016-.033.034-.065.054-.097l1.053-1.636c.021-.028.039-.046.06-.051a.31.31 0 0 1 .086-.009h.311v2.661h-.369v-2.039a.706.706 0 0 1 0-.092l-1.059 1.659c-.013.025-.035.046-.062.06s-.058.022-.09.022h-.06c-.032 0-.064-.007-.091-.022s-.049-.036-.062-.061l-1.09-1.669v2.136h-.357v-2.655h.311a.283.283 0 0 1 .087.009.121.121 0 0 1 .058.051l1.076 1.638c.021.03.039.062.054.095zM17.484 30.544v.997h-.412v-2.657h.919a2 2 0 0 1 .513.058c.133.032.257.089.363.165a.68.68 0 0 1 .206.261.789.789 0 0 1 .07.34.735.735 0 0 1-.299.606c-.106.08-.23.14-.365.176a1.76 1.76 0 0 1-.497.062l-.499-.007zm0-.285h.499a1.14 1.14 0 0 0 .319-.041.713.713 0 0 0 .231-.114.472.472 0 0 0 .14-.176.488.488 0 0 0 .049-.224c.005-.074-.009-.148-.041-.217s-.081-.131-.144-.181a.898.898 0 0 0-.554-.143h-.499v1.095zM23.024 31.544h-.326a.158.158 0 0 1-.091-.025.177.177 0 0 1-.054-.062l-.28-.643h-1.408l-.291.643a.148.148 0 0 1-.052.06.156.156 0 0 1-.093.026h-.326l1.237-2.661h.429l1.253 2.661zm-2.04-.988h1.162l-.491-1.083a1.878 1.878 0 0 1-.093-.25l-.047.139a1.33 1.33 0 0 1-.045.113l-.486 1.081zM24.805 28.896a.185.185 0 0 1 .062.047l1.803 2.006v-2.065h.369v2.661h-.206a.2.2 0 0 1-.084-.016.219.219 0 0 1-.066-.049l-1.801-2.004a.706.706 0 0 1 0 .092v1.978h-.369v-2.661h.218a.202.202 0 0 1 .074.012zM30.077 30.486v1.057h-.412v-1.057l-1.14-1.603h.369a.145.145 0 0 1 .089.023.228.228 0 0 1 .056.06L29.752 30a1.336 1.336 0 0 1 .126.236l.054-.114a.934.934 0 0 1 .07-.122l.703-1.041a.26.26 0 0 1 .054-.056.136.136 0 0 1 .089-.026h.373l-1.142 1.61zM13.316 24.418c.179.019.361.035.544.049 2.781-1.063 5.134-2.803 6.764-5.002s2.466-4.76 2.402-7.362l-3.065-2.619c.623 2.771.332 5.635-.842 8.272s-3.183 4.944-5.803 6.661z"/><path d="m12.222 24.296.082.014c2.8-1.711 4.935-4.101 6.128-6.859s1.391-5.76.566-8.616l-4.365-3.73c1.766 3.066 2.476 6.497 2.049 9.894s-1.974 6.621-4.461 9.297zM27.027 15.178c-.742 2.86-2.543 5.438-5.136 7.354a16.391 16.391 0 0 1-2.44 1.497c2.112-.53 4.053-1.468 5.673-2.74s2.877-2.846 3.674-4.599l-1.77-1.511z"/><path d="m26.332 14.757-2.521-2.154c-.048 2.455-.865 4.855-2.366 6.949s-3.631 3.807-6.169 4.96h.012c.566 0 1.131-.029 1.692-.086 2.372-.827 4.467-2.143 6.098-3.83s2.749-3.693 3.253-5.839zM12.587 3.533 9.58.96c-2.688.888-5 2.448-6.633 4.477S.436 9.869.427 12.331c.01 2.721 1.082 5.361 3.046 7.503s4.708 3.663 7.797 4.322c2.758-2.871 4.373-6.419 4.61-10.127s-.917-7.385-3.293-10.496zM33.28 14.361c-.011-3.228-1.517-6.321-4.188-8.604S22.8 2.188 19.022 2.179a16.244 16.244 0 0 0-5.105.812l18.411 15.731c.63-1.391.953-2.869.952-4.36z"/></symbol><symbol id="icon-foster_peters" viewBox="0 0 64 32"><path d="M10.298 10.307h-.002c-1.781 0-3.225 1.302-3.225 2.908v.002c0 1.606 1.444 2.908 3.225 2.908h.002c1.781 0 3.225-1.302 3.225-2.908v-.002c0-1.606-1.444-2.908-3.225-2.908zM34.105 9.377c-.005-2.231-.99-4.369-2.739-5.946S27.246.965 24.772.96c-2.475.004-4.847.892-6.597 2.47s-2.736 3.716-2.741 5.947v12.301s18.669-1.875 18.671-12.299v-.002zM.533 25.715c.004 1.552.69 3.04 1.907 4.137s2.867 1.716 4.588 1.721c1.721-.004 3.37-.623 4.587-1.72s1.903-2.584 1.908-4.136v-8.559S.532 18.463.532 25.715zm6.496 1.534c-.336 0-.665-.09-.945-.258s-.498-.408-.626-.688-.162-.589-.097-.886c.066-.297.228-.571.465-.785s.541-.361.871-.42c.33-.059.672-.029.983.087s.576.313.763.565c.187.252.287.549.287.852.001.202-.043.402-.128.589s-.21.356-.368.499-.346.257-.553.334a1.871 1.871 0 0 1-.652.117v-.006zM18.908 24.278v3.185h-.656v-3.185h.656zm1.269 1.361v.512h-1.448v-.512h1.448zm.153-1.361v.514h-1.601v-.514h1.601zm2.997 1.518v.151c0 .242-.033.459-.098.652s-.158.357-.278.492c-.12.134-.262.237-.429.308a1.375 1.375 0 0 1-.549.107c-.2 0-.383-.036-.549-.107a1.224 1.224 0 0 1-.429-.308 1.448 1.448 0 0 1-.282-.492 2.007 2.007 0 0 1-.098-.652v-.151c0-.244.033-.461.098-.652a1.44 1.44 0 0 1 .278-.492 1.22 1.22 0 0 1 .429-.311c.166-.071.349-.107.549-.107.201 0 .384.036.549.107.166.071.309.175.429.311.121.136.214.3.28.492.067.191.101.408.101.652zm-.663.151v-.155c0-.169-.015-.318-.046-.446s-.076-.236-.136-.324-.133-.153-.219-.197c-.086-.045-.184-.068-.295-.068s-.209.023-.295.068a.589.589 0 0 0-.217.197c-.058.087-.103.195-.133.324s-.046.277-.046.446v.155c0 .168.015.316.046.446a1 1 0 0 0 .136.326c.06.087.133.154.219.199s.185.068.295.068.209-.023.295-.068a.596.596 0 0 0 .217-.199c.058-.089.103-.198.133-.326.031-.13.046-.279.046-.446zm2.793.682a.43.43 0 0 0-.026-.153.29.29 0 0 0-.092-.127c-.045-.039-.109-.078-.19-.116s-.187-.077-.317-.118a3.986 3.986 0 0 1-.411-.158 1.69 1.69 0 0 1-.341-.203.923.923 0 0 1-.232-.273.76.76 0 0 1-.083-.361.75.75 0 0 1 .087-.361.828.828 0 0 1 .245-.28c.105-.079.229-.139.372-.182.144-.042.303-.063.475-.063.235 0 .44.042.615.127s.311.2.407.348a.89.89 0 0 1 .147.505h-.652a.496.496 0 0 0-.059-.245.396.396 0 0 0-.175-.168.621.621 0 0 0-.293-.061.658.658 0 0 0-.284.053.379.379 0 0 0-.171.138.338.338 0 0 0-.057.192c0 .054.013.103.039.147.028.044.069.085.123.123s.12.074.199.107a2.8 2.8 0 0 0 .273.098c.174.053.326.112.457.177.133.066.244.139.333.221a.817.817 0 0 1 .269.63c0 .139-.027.262-.081.372s-.132.202-.234.278-.224.133-.365.173c-.141.039-.3.059-.475.059a1.79 1.79 0 0 1-.466-.061 1.431 1.431 0 0 1-.418-.19c-.124-.085-.223-.192-.297-.324s-.112-.287-.112-.466h.658c0 .099.015.183.046.252s.074.124.129.166a.562.562 0 0 0 .201.092c.079.019.165.028.258.028a.7.7 0 0 0 .28-.048.351.351 0 0 0 .164-.133.354.354 0 0 0 .055-.193zm2.527-2.351v3.185h-.654v-3.185h.654zm.98 0v.514h-2.599v-.514h2.599zm2.511 2.673v.512H29.78v-.512h1.695zm-1.481-2.673v3.185h-.656v-3.185h.656zm1.26 1.297v.499H29.78v-.499h1.474zm.219-1.297v.514H29.78v-.514h1.693zm.385 0h1.188c.244 0 .453.036.628.109.176.073.312.181.407.324s.142.319.142.527c0 .171-.029.317-.087.44a.828.828 0 0 1-.243.304c-.104.08-.225.144-.365.192l-.208.109h-1.033l-.004-.512h.768c.115 0 .211-.02.287-.061s.133-.098.171-.171a.53.53 0 0 0 .059-.254c0-.102-.019-.19-.057-.265s-.096-.131-.173-.171a.641.641 0 0 0-.291-.059h-.532v2.671h-.656v-3.185zm1.781 3.185-.726-1.42.693-.004.735 1.393v.031h-.702zm3.445-1.135h-.812v-.512h.812c.125 0 .227-.02.306-.061.079-.042.136-.101.173-.175s.055-.158.055-.252c0-.095-.018-.183-.055-.265s-.094-.147-.173-.197a.564.564 0 0 0-.306-.074H36.5v2.671h-.656v-3.185h1.24c.249 0 .463.045.641.136a.968.968 0 0 1 .553.91c0 .206-.047.384-.142.534s-.232.266-.411.348a1.521 1.521 0 0 1-.641.122zm3.784.623v.512h-1.695v-.512h1.695zm-1.481-2.673v3.185h-.656v-3.185h.656zm1.26 1.297v.499h-1.474v-.499h1.474zm.219-1.297v.514h-1.693v-.514h1.693zm1.853 0v3.185h-.654v-3.185h.654zm.98 0v.514H41.1v-.514h2.599zm2.511 2.673v.512h-1.695v-.512h1.695zm-1.481-2.673v3.185h-.656v-3.185h.656zm1.26 1.297v.499h-1.474v-.499h1.474zm.219-1.297v.514h-1.693v-.514h1.693zm.385 0h1.188c.244 0 .453.036.628.109.176.073.312.181.407.324s.142.319.142.527c0 .171-.029.317-.087.44a.828.828 0 0 1-.243.304c-.103.08-.225.144-.365.192l-.208.109h-1.032l-.004-.512h.768c.115 0 .211-.02.286-.061s.133-.098.171-.171a.53.53 0 0 0 .059-.254c0-.102-.019-.19-.057-.265s-.096-.131-.173-.171a.641.641 0 0 0-.291-.059h-.532v2.671h-.656v-3.185zm1.781 3.185-.726-1.42.693-.004.735 1.393v.031h-.702zm2.747-.834a.43.43 0 0 0-.026-.153.29.29 0 0 0-.092-.127c-.045-.039-.109-.078-.19-.116s-.187-.077-.317-.118a3.9 3.9 0 0 1-.411-.158 1.69 1.69 0 0 1-.341-.203.923.923 0 0 1-.232-.273.76.76 0 0 1-.083-.361.74.74 0 0 1 .088-.361.828.828 0 0 1 .245-.28c.105-.079.229-.139.372-.182.144-.042.303-.063.475-.063.235 0 .44.042.615.127s.311.2.407.348a.89.89 0 0 1 .147.505h-.652a.496.496 0 0 0-.059-.245.396.396 0 0 0-.175-.168.621.621 0 0 0-.293-.061.658.658 0 0 0-.284.053.379.379 0 0 0-.171.138.338.338 0 0 0-.057.192c0 .054.013.103.039.147.028.044.068.085.122.123s.12.074.199.107a2.8 2.8 0 0 0 .273.098c.174.053.326.112.457.177.133.066.244.139.332.221s.156.174.201.278a.877.877 0 0 1 .068.352c0 .139-.027.262-.081.372s-.132.202-.234.278c-.102.076-.224.133-.365.173s-.3.059-.475.059a1.79 1.79 0 0 1-.466-.061 1.431 1.431 0 0 1-.418-.19c-.124-.085-.223-.192-.297-.324s-.112-.287-.112-.466h.658c0 .099.015.183.046.252s.074.124.129.166a.562.562 0 0 0 .201.092c.079.019.165.028.258.028a.7.7 0 0 0 .28-.048.351.351 0 0 0 .164-.133.354.354 0 0 0 .055-.193z"/></symbol><symbol id="icon-tag_line" viewBox="0 0 67 32"><path d="M34.071 14.81a2.061 2.061 0 0 1-.424-1.394v-2.022c0-.62.141-1.091.422-1.413s.764-.483 1.449-.481c.644 0 1.1.137 1.37.411.295.35.438.778.405 1.209v.475h-1.151v-.481a2.477 2.477 0 0 0-.033-.471.463.463 0 0 0-.164-.28.668.668 0 0 0-.417-.109.71.71 0 0 0-.439.115.542.542 0 0 0-.191.309 2.332 2.332 0 0 0-.045.5v2.454c-.018.237.033.473.148.689.057.073.137.131.23.167s.196.05.297.039a.62.62 0 0 0 .407-.111.495.495 0 0 0 .172-.298c.027-.163.039-.327.036-.492v-.498h1.151v.454c.032.45-.108.896-.398 1.271-.265.3-.715.45-1.378.45s-1.163-.16-1.447-.494zM38.864 14.831c-.291-.315-.436-.773-.436-1.38v-2.127c0-.601.145-1.055.436-1.364s.777-.462 1.459-.461c.677 0 1.161.154 1.451.461.291.309.438.763.438 1.364v2.127c0 .601-.148 1.061-.443 1.378s-.777.475-1.447.475-1.165-.16-1.459-.473zm1.994-.51a1.19 1.19 0 0 0 .138-.629v-2.604a1.156 1.156 0 0 0-.136-.617c-.058-.075-.14-.133-.235-.17s-.2-.049-.303-.036c-.103-.012-.209 0-.304.037s-.178.095-.237.169a1.13 1.13 0 0 0-.138.617v2.616c-.014.216.033.432.138.629.067.066.15.12.243.156a.823.823 0 0 0 .592 0 .715.715 0 0 0 .243-.156v-.012zM43.596 9.562h1.239l.932 3.924.953-3.924h1.206l.122 5.663h-.891l-.095-3.936-.92 3.936h-.715l-.953-3.95-.088 3.95h-.901l.112-5.663zM49.438 9.562h1.931c1.112 0 1.668.536 1.668 1.608 0 1.027-.586 1.54-1.757 1.538h-.658v2.517H49.43l.007-5.663zm1.649 2.421c.118.013.237.004.35-.027s.217-.083.305-.152a.917.917 0 0 0 .172-.639 1.788 1.788 0 0 0-.057-.514c-.017-.056-.047-.109-.088-.155s-.092-.085-.151-.114a1.227 1.227 0 0 0-.532-.091h-.462v1.692h.462zM54.755 9.562h1.28l1.313 5.663h-1.111l-.26-1.306h-1.142l-.267 1.306h-1.127l1.313-5.663zm1.094 3.702-.446-2.377-.446 2.377h.891zM58.409 9.562h.834l1.597 3.231V9.562h.989v5.663h-.794l-1.606-3.372v3.372h-1.022l.002-5.663zM64.145 13.066 62.817 9.57h1.118l.81 2.246.76-2.246h1.094l-1.311 3.496v2.159h-1.144v-2.159zM35.911 17.701v.296h-.972v2.301h-.408v-2.301h-.977v-.296h2.357zM38.959 20.299h-.315a.136.136 0 0 1-.088-.025.139.139 0 0 1-.053-.06l-.281-.617h-1.349l-.281.617a.17.17 0 0 1-.043.07.149.149 0 0 1-.088.025h-.315l1.192-2.597h.415l1.206 2.587zm-1.974-.964h1.125l-.477-1.057a1.838 1.838 0 0 1-.088-.245l-.045.138-.043.109-.472 1.055zM41.013 20.044c.075.003.149.003.224 0 .064-.006.128-.016.191-.031.058-.012.116-.028.172-.047.052-.018.105-.041.16-.064v-.584h-.477c-.012.001-.024-.001-.035-.005s-.021-.009-.03-.016c-.008-.006-.014-.013-.018-.021s-.006-.017-.006-.026v-.2h.925v.995a1.672 1.672 0 0 1-.503.211 1.977 1.977 0 0 1-.298.053 3.669 3.669 0 0 1-.348.017 1.79 1.79 0 0 1-.601-.097 1.476 1.476 0 0 1-.477-.271 1.241 1.241 0 0 1-.307-.411 1.31 1.31 0 0 1-.11-.539 1.363 1.363 0 0 1 .107-.543c.069-.154.173-.294.307-.411.136-.117.298-.209.477-.269.204-.066.421-.099.639-.097.111 0 .222.008.331.023.097.014.192.036.284.066.083.027.163.061.238.103.073.041.142.086.207.136l-.114.16c-.009.015-.022.027-.039.036s-.035.013-.054.014a.158.158 0 0 1-.074-.021 1.247 1.247 0 0 1-.117-.062 1.091 1.091 0 0 0-.16-.07 1.47 1.47 0 0 0-.522-.081 1.401 1.401 0 0 0-.46.072.998.998 0 0 0-.35.206.904.904 0 0 0-.222.323 1.219 1.219 0 0 0 0 .866.921.921 0 0 0 .238.327c.098.089.216.159.348.206.151.045.312.062.472.052zM44.812 20.003h1.301v.296h-1.699v-2.597h.407l-.01 2.301zM47.467 20.299h-.408v-2.597h.408v2.597zM48.983 17.714a.208.208 0 0 1 .062.047l1.742 1.958a.721.721 0 0 1 0-.093v-1.935h.355v2.608h-.205a.201.201 0 0 1-.088-.014.227.227 0 0 1-.064-.049l-1.74-1.956v2.019h-.341v-2.598h.212a.19.19 0 0 1 .067.012zM54.143 17.701v.286h-1.444v.858h1.17v.276h-1.17v.886h1.444v.286h-1.864v-2.591h1.864zM11.437 1.661l18.096 4.434v15.537L11.437 17.2V1.661zM10.276.337v17.618l20.415 5.003V5.342L10.276.336z"/><path d="M21.218 31.137.8 26.129V8.513l20.418 5.006v17.618z"/><path d="m10.614 1.462 17.86 4.378-7.596 6.556-17.863-4.38 7.598-6.554zM10.276.337.8 8.514l20.418 5.005 9.473-8.177L10.276.337zM22.366 30.146l8.325-7.185-8.325-2.042v9.227z"/></symbol><symbol id="icon-yaco" viewBox="0 0 28 32"><path d="M4.073.485 8.83 5.017 0 5.012v21.987h23.079v-8.407l4.752 4.527V.485H4.073zM22.87 18.06 9.383 5.21H22.87v12.85zm-4.188 5.723H3.652V8.995h1.062v13.786h13.968v1.001zM6.649 30.587l.56-1.152h.461l-.812 1.525v.888h-.419v-.888l-.812-1.525h.462l.56 1.152zm2.065-1.152h.099l.911 2.413h-.438l-.195-.565h-.934l-.195.565h-.436l.908-2.413h.278zm-.442 1.518h.706l-.354-1.024-.353 1.024zm2.916-.4-.052-.067a1.232 1.232 0 0 1-.144-.237.644.644 0 0 1 .027-.564.522.522 0 0 1 .22-.209.705.705 0 0 1 .333-.075c.123 0 .228.025.316.075a.529.529 0 0 1 .206.194.527.527 0 0 1-.082.646 1.235 1.235 0 0 1-.169.148l-.168.122.478.564a.966.966 0 0 0 .104-.451h.345c0 .117-.012.228-.035.333a1.033 1.033 0 0 1-.176.398l.354.417h-.462l-.14-.165a.906.906 0 0 1-.248.135 1.102 1.102 0 0 1-.375.063c-.16 0-.299-.029-.416-.088s-.208-.139-.272-.242a.66.66 0 0 1-.033-.612.813.813 0 0 1 .167-.209c.065-.059.14-.119.223-.178zm.198.243-.05.036a.633.633 0 0 0-.131.137.4.4 0 0 0-.068.215c0 .071.015.135.045.192a.355.355 0 0 0 .134.138c.06.033.132.05.217.05a.613.613 0 0 0 .39-.137l-.537-.631zm.095-.441.148-.1a.53.53 0 0 0 .149-.136.3.3 0 0 0 .045-.169c0-.058-.022-.11-.066-.159s-.107-.073-.187-.073a.246.246 0 0 0-.231.143.338.338 0 0 0-.028.141c0 .05.013.101.038.154a.94.94 0 0 0 .104.164l.028.035zm4.222.708a.945.945 0 0 1-.133.423c-.075.123-.181.219-.316.29s-.301.106-.495.106a.887.887 0 0 1-.71-.308 1.04 1.04 0 0 1-.196-.36 1.567 1.567 0 0 1-.066-.471v-.201c0-.173.023-.33.068-.471.046-.14.113-.26.199-.36a.847.847 0 0 1 .31-.23c.121-.053.258-.079.409-.079.192 0 .355.035.487.106s.235.168.308.293c.074.125.119.268.136.429h-.414a.756.756 0 0 0-.073-.267.378.378 0 0 0-.162-.169.578.578 0 0 0-.282-.06c-.095 0-.178.018-.249.053s-.13.087-.177.156a.779.779 0 0 0-.108.254 1.516 1.516 0 0 0-.035.341v.204c0 .122.01.232.031.331a.805.805 0 0 0 .099.253c.045.071.103.125.172.164s.153.058.25.058a.637.637 0 0 0 .287-.056.373.373 0 0 0 .167-.164.743.743 0 0 0 .076-.267h.414zm2.301-.355v-.133c0-.182-.024-.345-.073-.489a1.06 1.06 0 0 0-.204-.37.86.86 0 0 0-.317-.234 1.004 1.004 0 0 0-.408-.081.998.998 0 0 0-.406.081.885.885 0 0 0-.317.234 1.096 1.096 0 0 0-.206.37 1.514 1.514 0 0 0-.073.489v.133c0 .182.024.346.073.49.05.145.119.268.209.37a.909.909 0 0 0 .723.313c.149 0 .285-.026.408-.079a.867.867 0 0 0 .315-.234c.088-.102.156-.225.204-.37s.071-.308.071-.49zm-.416-.136v.136c0 .135-.013.254-.04.358a.777.777 0 0 1-.113.264.499.499 0 0 1-.182.161.557.557 0 0 1-.247.053.551.551 0 0 1-.245-.053.517.517 0 0 1-.186-.161c-.051-.072-.09-.16-.116-.264s-.04-.223-.04-.358v-.136c0-.135.013-.254.04-.356a.789.789 0 0 1 .114-.26c.051-.071.112-.124.184-.159s.154-.055.245-.055c.092 0 .174.018.247.055s.134.088.184.159c.051.07.089.156.114.26.027.103.04.222.04.356z"/></symbol><symbol id="icon-close" viewBox="0 0 32 32"><path d="M32 3.223 28.777 0 16 12.777 3.223 0 0 3.223 12.777 16 0 28.777 3.223 32 16 19.223 28.777 32 32 28.777 19.223 16 32 3.223z"/></symbol><symbol id="icon-icon_send" viewBox="0 0 38 32"><path d="M38.4 0 0 18l12.272 3.788L31.2 7 16.803 23.186l.012.004-.014-.004V32l6.882-6.691L32.401 28l6-28z"/></symbol><symbol id="icon-phone" viewBox="0 0 32 32"><path d="m28.865 21.822-4.525-.517a3.543 3.543 0 0 0-2.921 1.015l-3.278 3.278A26.8 26.8 0 0 1 6.402 13.859l3.296-3.296a3.545 3.545 0 0 0 1.015-2.921l-.517-4.489A3.566 3.566 0 0 0 6.651 0H3.569C1.556 0-.118 1.675.006 3.687.95 18.9 13.117 31.049 28.312 31.993c2.013.125 3.687-1.55 3.687-3.563v-3.082c.018-1.799-1.336-3.313-3.135-3.527z"/></symbol><symbol id="icon-mail" viewBox="0 0 43 32"><path d="M37.333 0h-32c-2.2 0-3.98 1.8-3.98 4l-.02 24c0 2.2 1.8 4 4 4h32c2.2 0 4-1.8 4-4V4c0-2.2-1.8-4-4-4zm-.8 8.5-14.14 8.84c-.64.4-1.48.4-2.12 0L6.133 8.5c-.5-.32-.8-.86-.8-1.44 0-1.34 1.46-2.14 2.6-1.44l13.4 8.38 13.4-8.38c1.14-.7 2.6.1 2.6 1.44 0 .58-.3 1.12-.8 1.44z"/></symbol><symbol id="icon-user" viewBox="0 0 32 32"><path d="M16 16c4.42 0 8-3.58 8-8s-3.58-8-8-8-8 3.58-8 8 3.58 8 8 8zm0 4c-5.34 0-16 2.68-16 8v2c0 1.1.9 2 2 2h28c1.1 0 2-.9 2-2v-2c0-5.32-10.66-8-16-8z"/></symbol><symbol id="icon-burger" viewBox="0 0 47 32"><path stroke-linecap="round" stroke-linejoin="round" stroke-width="4.364" d="M1.96 29.154h42.965M1.96 15.615h42.965M1.96 2.077h42.965"/></symbol><symbol id="icon-telegram" viewBox="0 0 32 32"><path d="m32 2.667-32 15 10.227 3.156L26 8.5 14.002 21.988l.01.003-.012-.003v7.345l5.735-5.576L27 25.999l5-23.333z"/></symbol></defs></svg>