<svg aria-hidden="true" style="position: absolute; width: 0; height: 0; overflow: hidden;" version="1.1" xmlns="http://www.w3.org/2000/svg" xmlns:xlink="http://www.w3.org/1999/xlink">
<defs>

<symbol id="icon-facebook" viewBox="0 0 18 32">
<path d="M13.329 5.313h2.921v-5.088c-0.504-0.069-2.237-0.225-4.256-0.225-4.212 0-7.097 2.649-7.097 7.519v4.481h-4.648v5.688h4.648v14.312h5.699v-14.311h4.46l0.708-5.688h-5.169v-3.919c0.001-1.644 0.444-2.769 2.735-2.769z"></path>
</symbol>

<symbol id="icon-instagram" viewBox="0 0 32 32">
<path d="M31.969 9.408c-0.075-1.7-0.35-2.869-0.744-3.882-0.406-1.075-1.031-2.038-1.85-2.838-0.8-0.813-1.769-1.444-2.832-1.844-1.019-0.394-2.181-0.669-3.882-0.744-1.713-0.081-2.257-0.1-6.601-0.1s-4.888 0.019-6.595 0.094c-1.7 0.075-2.869 0.35-3.882 0.744-1.075 0.406-2.038 1.031-2.838 1.85-0.813 0.8-1.444 1.769-1.844 2.832-0.394 1.019-0.669 2.182-0.744 3.882-0.081 1.713-0.1 2.257-0.1 6.601s0.019 4.888 0.094 6.595c0.075 1.7 0.35 2.869 0.744 3.882 0.406 1.075 1.038 2.038 1.85 2.838 0.8 0.813 1.769 1.444 2.832 1.844 1.019 0.394 2.182 0.669 3.882 0.744 1.706 0.075 2.25 0.094 6.595 0.094s4.888-0.018 6.595-0.094c1.7-0.075 2.869-0.35 3.882-0.744 2.151-0.831 3.851-2.532 4.682-4.682 0.394-1.019 0.669-2.182 0.744-3.882 0.075-1.707 0.094-2.251 0.094-6.595s-0.006-4.888-0.081-6.595zM29.087 22.473c-0.069 1.563-0.331 2.407-0.55 2.969-0.538 1.394-1.644 2.501-3.038 3.038-0.563 0.219-1.413 0.481-2.969 0.55-1.688 0.075-2.194 0.094-6.464 0.094s-4.782-0.018-6.464-0.094c-1.563-0.069-2.407-0.331-2.969-0.55-0.694-0.256-1.325-0.663-1.838-1.194-0.531-0.519-0.938-1.144-1.194-1.838-0.219-0.563-0.481-1.413-0.55-2.969-0.075-1.688-0.094-2.194-0.094-6.464s0.019-4.782 0.094-6.464c0.069-1.563 0.331-2.407 0.55-2.969 0.256-0.694 0.663-1.325 1.2-1.838 0.519-0.531 1.144-0.938 1.838-1.194 0.563-0.219 1.413-0.481 2.969-0.55 1.688-0.075 2.194-0.094 6.464-0.094 4.276 0 4.782 0.019 6.464 0.094 1.563 0.069 2.407 0.331 2.969 0.55 0.694 0.256 1.325 0.662 1.838 1.194 0.531 0.519 0.938 1.144 1.194 1.838 0.219 0.563 0.481 1.413 0.55 2.969 0.075 1.688 0.094 2.194 0.094 6.464s-0.019 4.77-0.094 6.457z"></path>
<path d="M16.059 7.782c-4.538 0-8.22 3.682-8.22 8.22s3.682 8.22 8.22 8.22c4.539 0 8.22-3.682 8.22-8.22s-3.682-8.22-8.22-8.22zM16.059 21.335c-2.944 0-5.332-2.388-5.332-5.332s2.388-5.332 5.332-5.332c2.944 0 5.332 2.388 5.332 5.332s-2.388 5.332-5.332 5.332z"></path>
<path d="M26.524 7.457c0 1.060-0.859 1.919-1.919 1.919s-1.919-0.859-1.919-1.919c0-1.060 0.859-1.919 1.919-1.919s1.919 0.859 1.919 1.919z"></path>
</symbol>

<symbol id="icon-linkedin" viewBox="0 0 32 32">
<path d="M31.992 32v-0.001h0.008v-11.736c0-5.741-1.236-10.164-7.948-10.164-3.227 0-5.392 1.771-6.276 3.449h-0.093v-2.913h-6.364v21.364h6.627v-10.579c0-2.785 0.528-5.479 3.977-5.479 3.399 0 3.449 3.179 3.449 5.657v10.401h6.62z"></path>
<path d="M0.528 10.636h6.635v21.364h-6.635v-21.364z"></path>
<path d="M3.843-0c-2.121 0-3.843 1.721-3.843 3.843s1.721 3.879 3.843 3.879c2.121 0 3.843-1.757 3.843-3.879-0.001-2.121-1.723-3.843-3.843-3.843v0z"></path>
</symbol>

<symbol id="icon-twitter" viewBox="0 0 32 32">
<path d="M32 6.078c-1.19 0.522-2.458 0.868-3.78 1.036 1.36-0.812 2.398-2.088 2.886-3.626-1.268 0.756-2.668 1.29-4.16 1.588-1.204-1.282-2.92-2.076-4.792-2.076-3.632 0-6.556 2.948-6.556 6.562 0 0.52 0.044 1.020 0.152 1.496-5.454-0.266-10.28-2.88-13.522-6.862-0.566 0.982-0.898 2.106-0.898 3.316 0 2.272 1.17 4.286 2.914 5.452-1.054-0.020-2.088-0.326-2.964-0.808 0 0.020 0 0.046 0 0.072 0 3.188 2.274 5.836 5.256 6.446-0.534 0.146-1.116 0.216-1.72 0.216-0.42 0-0.844-0.024-1.242-0.112 0.85 2.598 3.262 4.508 6.13 4.57-2.232 1.746-5.066 2.798-8.134 2.798-0.538 0-1.054-0.024-1.57-0.090 2.906 1.874 6.35 2.944 10.064 2.944 12.072 0 18.672-10 18.672-18.668 0-0.29-0.010-0.57-0.024-0.848 1.302-0.924 2.396-2.078 3.288-3.406z"></path>
</symbol>

<symbol id="icon-antenna" viewBox="0 0 32 32">
<path fill="#2e2f42" style="fill: var(--color1, #2e2f42)" d="M30.773 22.098l-8.443-8.505 0.937-4.615c0.242 0.094 0.499 0.144 0.758 0.146h0.006c1.192 0.014 2.17-0.941 2.184-2.133s-0.941-2.17-2.133-2.184c-1.192-0.014-2.17 0.941-2.184 2.133-0.003 0.255 0.039 0.509 0.125 0.749l-4.96 0.605-8.091-8.133c-0.099-0.101-0.235-0.159-0.377-0.16-0.14 0.001-0.274 0.056-0.373 0.155l-1.513 1.504c-0.208 0.208-0.208 0.546 0 0.754l0.814 0.826c-3.153 5.798-2.129 12.978 2.519 17.663 0.043 0.041 0.092 0.074 0.146 0.098-0.034 0.18-0.051 0.364-0.052 0.547v6.187h-6.4c-1.472 0.002-2.665 1.195-2.667 2.667v1.067c0 0.295 0.239 0.533 0.533 0.533h24.533c0.295 0 0.533-0.239 0.533-0.533v-1.067c-0.002-1.472-1.195-2.665-2.667-2.667h-6.4v-2.742c1.003 0.21 2.024 0.317 3.049 0.32 2.458-0.003 4.877-0.615 7.040-1.783l0.818 0.823c0.099 0.101 0.235 0.159 0.377 0.16 0.14-0.001 0.274-0.056 0.373-0.155l1.513-1.504c0.208-0.208 0.208-0.546 0-0.754zM23.28 6.233c0.418-0.415 1.093-0.414 1.509 0.004s0.414 1.093-0.004 1.508c-0.2 0.199-0.47 0.31-0.752 0.31h-0.003c-0.589-0.003-1.064-0.483-1.061-1.072 0.002-0.282 0.115-0.552 0.314-0.751h-0.002zM22.024 9.738l-0.598 2.946-1.175-1.182 1.774-1.763zM21.419 8.836l-1.92 1.909-1.485-1.493 3.405-0.415zM24.004 28.8c0.884 0 1.6 0.716 1.6 1.6v0.533h-23.467v-0.533c0-0.884 0.716-1.6 1.6-1.6h20.267zM16.537 26.667v1.067h-5.333v-1.067h5.333zM11.204 25.6v-4.053c0-1.294 1.196-2.347 2.667-2.347s2.667 1.053 2.667 2.347v4.053h-5.333zM17.604 23.904v-2.357c0-1.882-1.675-3.413-3.733-3.413-1.331-0.020-2.576 0.657-3.281 1.786-4.058-4.274-4.971-10.645-2.279-15.887l18.602 18.708c-2.872 1.461-6.165 1.873-9.309 1.163zM28.893 23.22l-21.057-21.181 0.755-0.752 7.935 7.98c0.004 0 0.006 0.007 0.010 0.010l13.115 13.191-0.757 0.752z"></path>
<path fill="#4d5ae5" style="fill: var(--color2, #4d5ae5)" d="M13.876 20.267h-0.005c-0.884-0.001-1.601 0.714-1.602 1.598s0.714 1.601 1.598 1.602h0.005c0.884 0.001 1.601-0.714 1.602-1.598s-0.714-1.601-1.598-1.602zM14.249 22.245c-0.1 0.1-0.236 0.156-0.378 0.155-0.295-0.002-0.532-0.242-0.531-0.536 0.001-0.141 0.057-0.276 0.157-0.375s0.233-0.154 0.373-0.155c0.295 0.002 0.532 0.242 0.531 0.536-0.001 0.141-0.057 0.276-0.157 0.375h0.005z"></path>
</symbol>

<symbol id="icon-astronaut" viewBox="0 0 32 32">
<path fill="#4d5ae5" style="fill: var(--color2, #4d5ae5)" d="M31.974 4.524c-0.063-0.193-0.229-0.333-0.43-0.363l-1.91-0.278-0.855-1.731c-0.179-0.365-0.777-0.365-0.956 0l-0.855 1.731-1.91 0.278c-0.201 0.029-0.367 0.17-0.431 0.363-0.062 0.193-0.011 0.405 0.135 0.547l1.383 1.348-0.326 1.903c-0.034 0.2 0.048 0.402 0.212 0.522 0.166 0.121 0.382 0.135 0.562 0.040l1.709-0.899 1.709 0.899c0.078 0.041 0.164 0.061 0.249 0.061 0.11 0 0.221-0.034 0.314-0.102 0.164-0.119 0.246-0.322 0.212-0.522l-0.326-1.903 1.383-1.348c0.145-0.142 0.197-0.354 0.135-0.547zM29.511 5.851c-0.125 0.122-0.183 0.299-0.153 0.472l0.191 1.114-1-0.526c-0.078-0.041-0.163-0.061-0.249-0.061s-0.17 0.020-0.249 0.061l-1.001 0.526 0.191-1.114c0.030-0.173-0.028-0.349-0.153-0.472l-0.81-0.789 1.119-0.163c0.174-0.025 0.324-0.134 0.402-0.292l0.5-1.013 0.5 1.013c0.078 0.157 0.228 0.267 0.402 0.292l1.119 0.163-0.809 0.789z"></path>
<path fill="#4d5ae5" style="fill: var(--color2, #4d5ae5)" d="M26.133 20.522h-1.067v1.067h1.067v-1.067z"></path>
<path fill="#4d5ae5" style="fill: var(--color2, #4d5ae5)" d="M26.133 22.656h-1.067v1.067h1.067v-1.067z"></path>
<path fill="#4d5ae5" style="fill: var(--color2, #4d5ae5)" d="M27.2 21.589h-1.067v1.067h1.067v-1.067z"></path>
<path fill="#4d5ae5" style="fill: var(--color2, #4d5ae5)" d="M25.067 21.589h-1.067v1.067h1.067v-1.067z"></path>
<path fill="#4d5ae5" style="fill: var(--color2, #4d5ae5)" d="M22.4 26.389h-1.067v1.067h1.067v-1.067z"></path>
<path fill="#4d5ae5" style="fill: var(--color2, #4d5ae5)" d="M22.4 28.522h-1.067v1.067h1.067v-1.067z"></path>
<path fill="#4d5ae5" style="fill: var(--color2, #4d5ae5)" d="M23.467 27.456h-1.067v1.067h1.067v-1.067z"></path>
<path fill="#4d5ae5" style="fill: var(--color2, #4d5ae5)" d="M21.333 27.456h-1.067v1.067h1.067v-1.067z"></path>
<path fill="#4d5ae5" style="fill: var(--color2, #4d5ae5)" d="M16 24.256h-1.067v1.067h1.067v-1.067z"></path>
<path fill="#4d5ae5" style="fill: var(--color2, #4d5ae5)" d="M16 26.389h-1.067v1.067h1.067v-1.067z"></path>
<path fill="#4d5ae5" style="fill: var(--color2, #4d5ae5)" d="M17.067 25.322h-1.067v1.067h1.067v-1.067z"></path>
<path fill="#4d5ae5" style="fill: var(--color2, #4d5ae5)" d="M14.933 25.322h-1.067v1.067h1.067v-1.067z"></path>
<path fill="#4d5ae5" style="fill: var(--color2, #4d5ae5)" d="M5.867 6.122h-1.067v1.067h1.067v-1.067z"></path>
<path fill="#4d5ae5" style="fill: var(--color2, #4d5ae5)" d="M5.867 8.255h-1.067v1.067h1.067v-1.067z"></path>
<path fill="#4d5ae5" style="fill: var(--color2, #4d5ae5)" d="M6.933 7.189h-1.067v1.067h1.067v-1.067z"></path>
<path fill="#4d5ae5" style="fill: var(--color2, #4d5ae5)" d="M4.8 7.189h-1.067v1.067h1.067v-1.067z"></path>
<path fill="#2e2f42" style="fill: var(--color1, #2e2f42)" d="M24.715 14.159c-0.287-0.388-0.709-0.637-1.188-0.705-0.481-0.068-0.956 0.058-1.34 0.352l-1.252 0.96-1.898 1.417-1.358-0.541c2.421-1.086 4.114-3.508 4.114-6.32 0-3.823-3.123-6.933-6.961-6.933s-6.961 3.11-6.961 6.933c0 1.386 0.414 2.674 1.12 3.758l-2.764-0.024c-0.002 0-0.003 0-0.005 0-0.009 0-0.015 0.004-0.023 0.005-0.053 0.002-0.105 0.013-0.155 0.031-0.013 0.005-0.026 0.008-0.038 0.013-0.006 0.003-0.013 0.003-0.019 0.006l-3.233 1.596c-0.001 0-0.001 0-0.001 0.001l-1.893 0.911c-0.021 0.009-0.042 0.021-0.063 0.035-0.755 0.502-1.012 1.489-0.598 2.295 0.22 0.429 0.595 0.745 1.056 0.889 0.178 0.055 0.359 0.083 0.539 0.083 0.29 0 0.577-0.071 0.839-0.211l1.388-0.738 2.264-1.169 1.357-0.008-5.442 5.416c-0.001 0.001-0.001 0.001-0.002 0.001l-1.339 1.333c-0.316 0.315-0.49 0.732-0.49 1.178s0.174 0.863 0.49 1.179c0.325 0.323 0.752 0.485 1.179 0.485s0.854-0.162 1.18-0.485l1.314-1.309 1.741-1.3 0.901 0.897-1.762 1.754c-0 0.001-0.001 0.001-0.002 0.001l-1.339 1.333c-0.316 0.315-0.49 0.732-0.49 1.178s0.174 0.863 0.49 1.179c0.325 0.323 0.753 0.485 1.18 0.485s0.855-0.162 1.18-0.485l3.482-3.467c0.001-0.001 0.001-0.001 0.001-0.002l1.010-1-0.004-0.004c0.006-0.006 0.015-0.009 0.022-0.015l5.166-5.658 3.471 0.494c0.025 0.004 0.050 0.005 0.075 0.005 0.065 0 0.127-0.015 0.187-0.038 0.018-0.006 0.033-0.015 0.050-0.023 0.019-0.010 0.039-0.015 0.058-0.027l3.213-2.133c0.012-0.008 0.018-0.021 0.029-0.029 0.013-0.010 0.029-0.014 0.041-0.026l1.271-1.191c0.662-0.62 0.753-1.635 0.212-2.362zM2.13 17.77c-0.173 0.093-0.37 0.111-0.558 0.052-0.187-0.058-0.338-0.186-0.427-0.358-0.161-0.314-0.068-0.695 0.214-0.902l1.314-0.632 0.449 1.313-0.992 0.527zM5.628 15.942l-1.548 0.8-0.439-1.283 2.027-1.001-0.040 1.484zM20.727 9.322c0 0.918-0.219 1.785-0.599 2.559l-4.181-1.899c-0.044-0.573-0.341-1.075-0.788-1.388l1.464-4.86c2.378 0.756 4.105 2.974 4.105 5.588zM8.938 9.322c0-3.235 2.644-5.867 5.894-5.867 0.253 0 0.5 0.021 0.745 0.052l-1.432 4.754c-0.019-0.001-0.037-0.006-0.057-0.006-1.033 0-1.873 0.837-1.873 1.867s0.84 1.867 1.873 1.867c0.694 0 1.294-0.383 1.618-0.945l3.862 1.755c-1.075 1.446-2.795 2.39-4.737 2.39-3.25 0-5.894-2.632-5.894-5.867zM14.894 10.122c0 0.441-0.362 0.8-0.806 0.8s-0.806-0.359-0.806-0.8c0-0.441 0.362-0.8 0.806-0.8s0.806 0.359 0.806 0.8zM2.465 25.146c-0.236 0.234-0.619 0.234-0.854 0.001-0.114-0.114-0.176-0.263-0.176-0.423s0.062-0.309 0.176-0.421l0.962-0.958 0.851 0.848-0.959 0.955zM5.679 28.88c-0.236 0.234-0.619 0.235-0.855 0.001-0.114-0.114-0.176-0.263-0.176-0.423s0.062-0.309 0.176-0.421l0.963-0.959 0.852 0.848-0.96 0.955zM9.16 25.411c-0.001 0-0.001 0-0.002 0.001l-1.765 1.76-0.852-0.848 1.763-1.755c0 0 0 0 0-0s0.001-0.001 0.002-0.001c0.040-0.040 0.065-0.088 0.090-0.135 0.007-0.014 0.020-0.026 0.026-0.040 0.017-0.041 0.019-0.085 0.026-0.129 0.003-0.025 0.014-0.047 0.014-0.073 0-0.036-0.013-0.070-0.020-0.106-0.006-0.032-0.006-0.065-0.019-0.095-0.020-0.050-0.055-0.094-0.091-0.138-0.010-0.012-0.014-0.027-0.025-0.038 0 0 0 0-0.001 0s-0.001-0.002-0.001-0.002l-1.607-1.6c-0.017-0.017-0.039-0.024-0.058-0.038-0.028-0.022-0.055-0.042-0.087-0.058-0.030-0.015-0.061-0.024-0.093-0.033-0.034-0.010-0.067-0.017-0.103-0.020-0.033-0.002-0.063 0.001-0.095 0.005-0.036 0.004-0.069 0.009-0.104 0.020-0.034 0.011-0.063 0.027-0.094 0.045-0.020 0.011-0.042 0.015-0.061 0.029l-1.773 1.324-0.901-0.897 2.399-2.386 4.361 4.289-0.928 0.919zM15.979 18.394c-0.015-0.002-0.030 0.004-0.045 0.003-0.039-0.002-0.076 0.001-0.115 0.007-0.030 0.005-0.059 0.011-0.088 0.021-0.034 0.012-0.065 0.028-0.097 0.047-0.030 0.018-0.057 0.037-0.083 0.061-0.013 0.011-0.028 0.017-0.040 0.029l-4.698 5.146-4.328-4.257 2.833-2.818c0.209-0.208 0.21-0.546 0.002-0.755-0.105-0.105-0.243-0.157-0.381-0.156v-0.001l-2.219 0.013 0.028-1.607 3.104 0.027c1.265 1.294 3.029 2.101 4.981 2.101 0.437 0 0.864-0.045 1.279-0.123 0.040 0.032 0.079 0.065 0.13 0.085l2.41 0.96 0.152 0.758 0.178 0.885-3.003-0.427zM20.020 18.572l-0.313-1.558 1.446-1.080 0.947 1.257-2.080 1.381zM23.774 15.741l-0.838 0.785-0.931-1.236 0.831-0.637c0.155-0.119 0.351-0.168 0.543-0.143 0.193 0.027 0.364 0.128 0.48 0.284 0.217 0.292 0.18 0.699-0.085 0.947z"></path>
<path fill="#2e2f42" style="fill: var(--color1, #2e2f42)" d="M13.602 18.544l-2.143-2.133c-0.207-0.207-0.545-0.207-0.753 0l-2.142 2.133c-0.1 0.101-0.157 0.236-0.157 0.378s0.056 0.278 0.157 0.378l2.142 2.133c0.104 0.103 0.241 0.155 0.377 0.155s0.273-0.052 0.376-0.155l2.143-2.133c0.1-0.1 0.157-0.236 0.157-0.378s-0.057-0.278-0.157-0.378zM11.083 20.303l-1.387-1.381 1.387-1.381 1.387 1.381-1.387 1.381z"></path>
<path fill="#2e2f42" style="fill: var(--color1, #2e2f42)" d="M17.164 5.071l-0.258 1.036c0.071 0.018 1.738 0.452 1.738 2.149h1.067c-0-2.017-1.666-2.965-2.547-3.185z"></path>
<path fill="#2e2f42" style="fill: var(--color1, #2e2f42)" d="M19.711 9.322h-1.067v1.067h1.067v-1.067z"></path>
</symbol>

<symbol id="icon-clock" viewBox="0 0 32 32">
<path fill="#2e2f42" style="fill: var(--color1, #2e2f42)" d="M31.297 15.301c-0.002-8.452-6.855-15.303-15.308-15.301s-15.303 6.855-15.301 15.308c0.001 6.658 4.307 12.551 10.649 14.576 0.061 0.019 0.124 0.029 0.187 0.029 0.121-0 0.239-0.032 0.342-0.094 0.135-0.080 0.236-0.207 0.283-0.356l3.865-12.25c1.057-0.005 1.909-0.866 1.903-1.923s-0.866-1.909-1.923-1.903c-0.284 0.001-0.565 0.067-0.82 0.191l-5.106-5.107c-0.253-0.245-0.657-0.238-0.902 0.016-0.239 0.247-0.239 0.639 0 0.886l5.103 5.109c-0.392 0.799-0.168 1.764 0.536 2.309l-3.683 11.673c-7.278-2.681-11.004-10.754-8.323-18.032s10.754-11.004 18.032-8.323c7.278 2.681 11.004 10.754 8.323 18.032-1.31 3.556-4.001 6.431-7.462 7.973l-0.398-1.874c-0.073-0.345-0.411-0.565-0.756-0.492-0.109 0.023-0.209 0.074-0.293 0.148l-3.837 3.426c-0.263 0.234-0.287 0.637-0.052 0.9 0.076 0.085 0.174 0.149 0.283 0.184l4.899 1.564c0.335 0.108 0.694-0.077 0.802-0.412 0.034-0.106 0.040-0.219 0.017-0.328l-0.391-1.839c5.664-2.388 9.342-7.942 9.329-14.089zM15.992 14.664c0.352 0 0.638 0.286 0.638 0.638s-0.286 0.638-0.638 0.638c-0.352 0-0.638-0.285-0.638-0.638s0.285-0.638 0.638-0.638zM18.093 29.528l2.184-1.948 0.603 2.84-2.787-0.892z"></path>
<path fill="#4d5ae5" style="fill: var(--color2, #4d5ae5)" d="M15.354 3.185v1.275c0 0.352 0.285 0.638 0.638 0.638s0.638-0.285 0.638-0.638v-1.275c0-0.352-0.286-0.638-0.638-0.638s-0.638 0.286-0.638 0.638z"></path>
<path fill="#4d5ae5" style="fill: var(--color2, #4d5ae5)" d="M3.876 14.664c-0.352 0-0.638 0.286-0.638 0.638s0.285 0.638 0.638 0.638h1.275c0.352 0 0.638-0.285 0.638-0.638s-0.285-0.638-0.638-0.638h-1.275z"></path>
<path fill="#4d5ae5" style="fill: var(--color2, #4d5ae5)" d="M28.108 15.939c0.352 0 0.638-0.285 0.638-0.638s-0.285-0.638-0.638-0.638h-1.275c-0.352 0-0.638 0.286-0.638 0.638s0.286 0.638 0.638 0.638h1.275z"></path>
</symbol>

<symbol id="icon-diagram" viewBox="0 0 32 32">
<path fill="#4d5ae5" style="fill: var(--color2, #4d5ae5)" d="M14.925 14.965h1.066v4.798h-1.066v-4.797z"></path>
<path fill="#4d5ae5" style="fill: var(--color2, #4d5ae5)" d="M19.19 17.097h1.066v2.665h-1.066v-2.665z"></path>
<path fill="#4d5ae5" style="fill: var(--color2, #4d5ae5)" d="M10.661 18.696h1.066v1.066h-1.066v-1.066z"></path>
<path fill="#4d5ae5" style="fill: var(--color2, #4d5ae5)" d="M7.463 18.163h1.066v1.599h-1.066v-1.599z"></path>
<path fill="#2e2f42" style="fill: var(--color1, #2e2f42)" d="M1.599 28.291h25.587c0.883 0 1.599-0.716 1.599-1.599v-2.132c0-0.883-0.716-1.599-1.599-1.599h-0.533v-13.293l3.028-2.868c0.703 0.346 1.553 0.136 2.013-0.499s0.396-1.508-0.152-2.068-1.42-0.644-2.065-0.198c-0.644 0.446-0.873 1.292-0.542 2.002l-2.281 2.163v-1.23c0-0.883-0.716-1.599-1.599-1.599h-21.322c-0.883 0-1.599 0.716-1.599 1.599v15.992h-0.533c-0.883 0-1.599 0.716-1.599 1.599v2.132c0 0.883 0.716 1.599 1.599 1.599zM30.384 4.837c0.294 0 0.533 0.239 0.533 0.533s-0.239 0.533-0.533 0.533c-0.294 0-0.533-0.239-0.533-0.533s0.239-0.533 0.533-0.533zM3.198 6.969c0-0.294 0.239-0.533 0.533-0.533h21.322c0.294 0 0.533 0.239 0.533 0.533v2.239l-1.066 1.013v-2.186c0-0.294-0.239-0.533-0.533-0.533h-19.19c-0.294 0-0.533 0.239-0.533 0.533v13.326c0 0.294 0.239 0.533 0.533 0.533h19.19c0.294 0 0.533-0.239 0.533-0.533v-9.674l1.066-1.010v12.284h-22.388v-15.992zM7.996 13.899c-0.721-0.002-1.354 0.478-1.546 1.174s0.105 1.433 0.725 1.801c0.62 0.368 1.41 0.276 1.928-0.226l1.853 0.93c0.215 0.108 0.476 0.057 0.636-0.123l3.939-4.431 3.872 2.901c0.208 0.156 0.498 0.139 0.686-0.039l3.365-3.188v8.131h-18.124v-12.26h18.124v2.66l-3.771 3.572-3.904-2.927c-0.222-0.166-0.534-0.135-0.718 0.072l-3.993 4.493-1.493-0.746c0.011-0.064 0.018-0.129 0.020-0.193 0-0.883-0.716-1.599-1.599-1.599zM8.529 15.498c0 0.294-0.239 0.533-0.533 0.533s-0.533-0.239-0.533-0.533c0-0.294 0.239-0.533 0.533-0.533s0.533 0.239 0.533 0.533zM11.727 24.027h5.331v0.533c0 0.294-0.239 0.533-0.533 0.533h-4.264c-0.294 0-0.533-0.239-0.533-0.533v-0.533zM1.066 24.56c0-0.294 0.239-0.533 0.533-0.533h9.062v0.533c0 0.883 0.716 1.599 1.599 1.599h4.264c0.883 0 1.599-0.716 1.599-1.599v-0.533h9.062c0.294 0 0.533 0.239 0.533 0.533v2.132c0 0.294-0.239 0.533-0.533 0.533h-25.587c-0.294 0-0.533-0.239-0.533-0.533v-2.132z"></path>
</symbol>

<symbol id="icon-brand" viewBox="0 0 45 32">
<path d="M3.954 26.661c0.172 0.192 0.263 0.431 0.259 0.677 0.009 0.16-0.023 0.321-0.092 0.469s-0.175 0.28-0.309 0.387c-0.334 0.227-0.747 0.338-1.165 0.312h-2.048v-4.293h2.006c0.396-0.024 0.789 0.077 1.111 0.285 0.13 0.098 0.232 0.221 0.3 0.36s0.098 0.291 0.089 0.443c0.012 0.237-0.071 0.47-0.233 0.656-0.156 0.171-0.371 0.289-0.61 0.335 0.272 0.045 0.517 0.175 0.692 0.367zM1.553 26.013h0.857c0.195 0.013 0.388-0.038 0.545-0.143 0.064-0.052 0.114-0.118 0.146-0.19s0.045-0.151 0.038-0.229c0.006-0.078-0.007-0.155-0.039-0.228s-0.080-0.138-0.143-0.191c-0.161-0.108-0.361-0.159-0.561-0.145h-0.843v1.126zM3.039 27.659c0.069-0.054 0.123-0.121 0.158-0.197s0.050-0.158 0.045-0.239c0.005-0.083-0.011-0.166-0.047-0.242s-0.091-0.144-0.161-0.198c-0.168-0.112-0.374-0.167-0.582-0.155h-0.899v1.181h0.911c0.205 0.011 0.408-0.042 0.575-0.149z"></path>
<path d="M8.054 28.507l-1.116-1.678h-0.419v1.678h-0.96v-4.293h1.817c0.458-0.029 0.911 0.102 1.265 0.365 0.254 0.233 0.407 0.54 0.432 0.866s-0.081 0.649-0.297 0.911c-0.224 0.231-0.53 0.385-0.867 0.436l1.188 1.715h-1.044zM6.519 26.244h0.785c0.545 0 0.818-0.217 0.818-0.65 0.006-0.088-0.009-0.177-0.044-0.26s-0.088-0.159-0.156-0.222c-0.172-0.129-0.394-0.192-0.617-0.174h-0.794l0.009 1.306z"></path>
<path d="M13.3 27.643h-1.912l-0.338 0.864h-1.006l1.756-4.244h1.088l1.749 4.245h-1.006l-0.331-0.864zM13.044 26.993l-0.699-1.812-0.699 1.812h1.398z"></path>
<path d="M19.866 28.507h-0.953l-2.136-2.919v2.919h-0.95v-4.293h0.95l2.136 2.936v-2.936h0.953v4.293z"></path>
<path d="M25.303 27.479c-0.197 0.324-0.497 0.588-0.862 0.757-0.415 0.189-0.875 0.282-1.339 0.27h-1.696v-4.293h1.696c0.464-0.011 0.923 0.080 1.339 0.264 0.365 0.166 0.665 0.427 0.862 0.749 0.196 0.349 0.298 0.735 0.298 1.126s-0.102 0.777-0.298 1.126zM24.213 27.376c0.272-0.285 0.421-0.649 0.421-1.024s-0.149-0.739-0.421-1.024c-0.329-0.258-0.757-0.389-1.193-0.365h-0.662v2.779h0.662c0.435 0.025 0.864-0.107 1.193-0.365z"></path>
<path d="M13.896 0.337c0 0 12.297 4.179 12.036 10.227v10.23c0 0-12.287-4.181-12.031-10.229l-0.005-10.227z"></path>
<path d="M36.887 18.399c2.322-1.439 5.009-2.33 7.813-2.592v-3.202c-3.231 1.121-5.972 3.154-7.813 5.794z"></path>
<path d="M35.492 19.363c1.901-3.446 5.196-6.105 9.208-7.43v-9.227c0 0-17.512 5.954-17.142 14.566v14.564c0 0 0.78-0.266 2.008-0.765 0-0.465 0-0.935 0.056-1.407 0.363-3.998 2.474-7.704 5.87-10.301z"></path>
<path d="M33.826 24.774c0.092-1.010 0.297-2.009 0.613-2.982-2.115 2.243-3.395 5.026-3.662 7.958-0.026 0.277-0.040 0.554-0.047 0.839 0.995-0.43 2.152-0.967 3.368-1.598-0.31-1.387-0.402-2.807-0.273-4.217z"></path>
<path d="M34.523 24.826c-0.117 1.276-0.044 2.56 0.217 3.819 4.785-2.577 10.161-6.56 9.953-11.372v-0.419c-3.418 0.344-6.617 1.69-9.103 3.829-0.582 1.326-0.942 2.723-1.067 4.144z"></path>
</symbol>

<symbol id="icon-company" viewBox="0 0 24 32">
<path d="M10.172 2.319c0.136 0 0.281 0.012 0.427 0.025 0.014 0.001 0.029 0.002 0.043 0.004 0.703 0.050 1.401 0.155 2.088 0.315v-1.688c-0.707-0.177-1.428-0.292-2.155-0.343-0.276-0.021-0.57-0.034-0.871-0.042h-0.252c-1.459 0.005-2.911 0.193-4.324 0.558-1.609 0.401-3.154 1.030-4.588 1.866v16.739c1.381-0.75 2.85-1.323 4.374-1.704 1.203-0.307 2.432-0.496 3.671-0.564h0.049c0.207-0.011 0.415-0.017 0.628-0.018v-1.715c-1.61 0.021-3.212 0.234-4.772 0.634-0.577 0.15-1.135 0.312-1.658 0.492l-0.597 0.202v-13.052l0.255-0.123c1.946-0.923 4.051-1.46 6.199-1.581 0.018-0.001 0.036-0.001 0.054 0 0.237-0.012 0.476-0.018 0.71-0.018h0.268c0.124 0.003 0.248 0.006 0.371 0.014h0.081zM13.143 4.045c0.374 0.028 0.762 0.042 1.154 0.042 1.534-0.006 3.061-0.201 4.547-0.583 1.523-0.383 2.991-0.956 4.372-1.706v16.441c-1.435 0.836-2.98 1.464-4.59 1.866-1.413 0.363-2.866 0.55-4.325 0.556-1.105 0.009-2.207-0.121-3.281-0.387v-16.547c0.253 0.058 0.514 0.112 0.78 0.157 0.435 0.073 0.895 0.127 1.342 0.16zM21.51 4.172l-0.596 0.201c-0.549 0.184-1.102 0.349-1.658 0.496-1.619 0.416-3.284 0.63-4.955 0.636-0.389 0-0.747-0.011-1.093-0.033l-0.476-0.031v13.426l0.409 0.036c0.379 0.033 0.769 0.050 1.163 0.050 1.317-0.006 2.627-0.175 3.902-0.505 1.050-0.263 2.071-0.63 3.050-1.096l0.255-0.123v-13.056z"></path>
<path d="M1.698 25.473c-0.086-0.089-0.189-0.159-0.303-0.205s-0.237-0.068-0.36-0.063c-0.131-0.002-0.262 0.023-0.383 0.072-0.112 0.044-0.213 0.111-0.298 0.196s-0.15 0.188-0.192 0.3c-0.047 0.118-0.070 0.244-0.069 0.37v2.236c-0.005 0.158 0.025 0.314 0.088 0.459 0.053 0.115 0.129 0.217 0.224 0.3 0.089 0.075 0.194 0.13 0.307 0.159 0.109 0.031 0.221 0.046 0.334 0.046 0.125 0.001 0.248-0.025 0.361-0.078 0.112-0.049 0.213-0.119 0.298-0.207 0.083-0.087 0.149-0.189 0.195-0.3 0.048-0.113 0.072-0.234 0.072-0.357v-0.25h-0.585v0.199c0.002 0.068-0.010 0.136-0.034 0.199-0.019 0.048-0.048 0.091-0.085 0.126-0.036 0.029-0.078 0.051-0.122 0.064-0.039 0.013-0.081 0.020-0.122 0.021-0.052 0.006-0.105-0.002-0.153-0.023s-0.090-0.055-0.121-0.097c-0.055-0.090-0.082-0.194-0.078-0.3v-2.085c-0.004-0.116 0.021-0.23 0.072-0.334 0.030-0.047 0.073-0.085 0.124-0.109s0.107-0.033 0.162-0.026c0.050-0.002 0.1 0.009 0.146 0.031s0.085 0.055 0.115 0.095c0.065 0.086 0.1 0.192 0.097 0.3v0.193h0.579v-0.228c0.001-0.134-0.023-0.267-0.072-0.391-0.043-0.117-0.11-0.224-0.195-0.315z"></path>
<path d="M5.171 25.447c-0.186-0.157-0.422-0.244-0.665-0.246-0.119 0-0.237 0.022-0.349 0.063-0.114 0.041-0.218 0.103-0.309 0.183-0.097 0.087-0.174 0.194-0.227 0.313-0.059 0.137-0.088 0.284-0.085 0.433v2.145c-0.004 0.151 0.025 0.301 0.085 0.439 0.053 0.115 0.13 0.218 0.227 0.3 0.089 0.083 0.194 0.147 0.309 0.189 0.112 0.041 0.23 0.062 0.349 0.063s0.237-0.021 0.349-0.063c0.116-0.042 0.224-0.106 0.316-0.189 0.093-0.084 0.168-0.186 0.221-0.3 0.060-0.138 0.089-0.288 0.085-0.439v-2.145c0.003-0.149-0.026-0.297-0.085-0.433-0.052-0.118-0.127-0.225-0.221-0.313zM4.898 28.339c0.005 0.057-0.003 0.115-0.023 0.168s-0.052 0.102-0.093 0.142c-0.077 0.065-0.175 0.1-0.275 0.1s-0.198-0.035-0.275-0.1c-0.041-0.040-0.073-0.088-0.093-0.142s-0.028-0.111-0.023-0.168v-2.145c-0.005-0.057 0.003-0.115 0.023-0.168s0.052-0.102 0.093-0.142c0.077-0.065 0.175-0.1 0.275-0.1s0.198 0.035 0.275 0.1c0.041 0.040 0.073 0.088 0.093 0.142s0.028 0.111 0.023 0.168v2.145z"></path>
<path d="M9.732 29.297v-4.061h-0.562l-0.738 2.15h-0.010l-0.744-2.15h-0.556v4.061h0.58v-2.47h0.010l0.568 1.746h0.289l0.573-1.746h0.010v2.47h0.58z"></path>
<path d="M13.028 25.52c-0.089-0.1-0.202-0.176-0.328-0.222-0.136-0.044-0.278-0.066-0.421-0.063h-0.862v4.061h0.579v-1.586h0.298c0.181 0.008 0.36-0.030 0.522-0.111 0.132-0.073 0.241-0.18 0.318-0.31 0.067-0.108 0.112-0.228 0.133-0.354 0.023-0.153 0.033-0.307 0.031-0.462 0.006-0.195-0.013-0.39-0.057-0.58-0.039-0.14-0.112-0.269-0.213-0.373zM12.73 26.759c-0.003 0.074-0.021 0.146-0.054 0.211-0.033 0.062-0.085 0.112-0.149 0.142-0.086 0.038-0.179 0.056-0.273 0.051h-0.264v-1.381h0.298c0.090-0.004 0.179 0.013 0.261 0.051 0.060 0.034 0.107 0.087 0.136 0.15 0.032 0.071 0.049 0.148 0.051 0.226 0 0.085 0 0.175 0 0.27s0.006 0.192 0 0.279h-0.006z"></path>
<path d="M15.769 25.236h-0.474l-0.895 4.061h0.579l0.17-0.872h0.789l0.17 0.872h0.579l-0.917-4.061zM15.235 27.871l0.285-1.472h0.010l0.283 1.472h-0.579z"></path>
<path d="M19.507 27.682h-0.010l-0.874-2.446h-0.556v4.061h0.579v-2.442h0.012l0.884 2.442h0.544v-4.061h-0.579v2.446z"></path>
<path d="M23.043 25.236l-0.465 1.614h-0.012l-0.465-1.614h-0.613l0.795 2.344v1.716h0.579v-1.716l0.795-2.344h-0.613z"></path>
<path d="M0.084 30.443h0.279v0.782h0.189v-0.782h0.277v-0.16h-0.746v0.16z"></path>
<path d="M2.428 30.283l-0.365 0.943h0.201l0.078-0.214h0.376l0.081 0.214h0.206l-0.374-0.943h-0.201zM2.399 30.852l0.128-0.349 0.128 0.349h-0.256z"></path>
<path d="M4.746 30.878h0.218v0.121c-0.064 0.051-0.142 0.079-0.224 0.079-0.038 0.002-0.076-0.005-0.111-0.021s-0.065-0.040-0.089-0.069c-0.050-0.072-0.075-0.158-0.070-0.246 0-0.21 0.091-0.315 0.271-0.315 0.048-0.005 0.095 0.008 0.134 0.035s0.067 0.068 0.079 0.115l0.186-0.036c-0.040-0.184-0.173-0.277-0.4-0.277-0.121-0.003-0.239 0.040-0.33 0.121-0.048 0.047-0.084 0.104-0.108 0.166s-0.033 0.13-0.028 0.196c-0.005 0.129 0.038 0.255 0.121 0.354 0.046 0.048 0.102 0.085 0.164 0.108s0.128 0.034 0.194 0.029c0.148 0.004 0.291-0.050 0.4-0.15v-0.372h-0.409v0.159z"></path>
<path d="M7.112 30.283h-0.191v0.943h0.661v-0.16h-0.47v-0.782z"></path>
<path d="M9.113 30.283h-0.191v0.943h0.191v-0.943z"></path>
<path d="M11.070 30.912l-0.386-0.63h-0.185v0.943h0.177v-0.616l0.379 0.616h0.189v-0.943h-0.174v0.63z"></path>
<path d="M12.838 30.81h0.47v-0.16h-0.47v-0.207h0.506v-0.16h-0.696v0.943h0.716v-0.16h-0.525v-0.255z"></path>
<path d="M17.127 30.654h-0.371v-0.372h-0.189v0.943h0.189v-0.412h0.371v0.412h0.189v-0.943h-0.189v0.372z"></path>
<path d="M18.906 30.81h0.471v-0.16h-0.471v-0.207h0.507v-0.16h-0.696v0.943h0.714v-0.16h-0.525v-0.255z"></path>
<path d="M21.319 30.81c0.164-0.026 0.247-0.112 0.247-0.262 0.005-0.040-0.001-0.081-0.018-0.118s-0.042-0.069-0.075-0.092c-0.085-0.043-0.181-0.062-0.276-0.055h-0.4v0.943h0.189v-0.394h0.037c0.040-0.002 0.081 0.005 0.118 0.021 0.028 0.017 0.051 0.041 0.067 0.069l0.206 0.3h0.227l-0.115-0.184c-0.051-0.091-0.122-0.169-0.209-0.226zM21.128 30.68h-0.14v-0.237h0.149c0.065-0.005 0.13 0.002 0.192 0.022 0.014 0.012 0.025 0.027 0.032 0.044s0.010 0.035 0.010 0.054c-0.001 0.018-0.006 0.036-0.015 0.053s-0.021 0.030-0.036 0.041c-0.062 0.019-0.127 0.027-0.192 0.022z"></path>
<path d="M23.138 30.81h0.47v-0.16h-0.47v-0.207h0.507v-0.16h-0.698v0.943h0.716v-0.16h-0.525v-0.255z"></path>
</symbol>

<symbol id="icon-company2" viewBox="0 0 34 32">
<path d="M5.511 30.993c0.012 0 0.024 0.003 0.035 0.007s0.021 0.010 0.029 0.018l0.165 0.155c-0.128 0.125-0.286 0.226-0.464 0.294-0.208 0.075-0.432 0.111-0.657 0.106-0.212 0.004-0.422-0.030-0.618-0.099-0.177-0.063-0.336-0.158-0.466-0.278-0.133-0.125-0.235-0.271-0.301-0.43-0.072-0.177-0.108-0.364-0.105-0.551-0.003-0.189 0.036-0.376 0.113-0.553 0.072-0.16 0.181-0.306 0.319-0.43 0.141-0.121 0.309-0.217 0.495-0.28 0.203-0.067 0.419-0.101 0.637-0.099 0.202-0.004 0.403 0.026 0.592 0.090 0.163 0.060 0.313 0.145 0.443 0.248l-0.138 0.166c-0.010 0.012-0.021 0.022-0.035 0.030-0.016 0.009-0.036 0.014-0.056 0.012-0.021-0.001-0.042-0.007-0.060-0.018l-0.074-0.044-0.103-0.056c-0.044-0.021-0.091-0.039-0.138-0.055-0.061-0.019-0.124-0.033-0.188-0.044-0.081-0.013-0.163-0.019-0.245-0.018-0.157-0.002-0.312 0.023-0.458 0.074-0.135 0.047-0.258 0.118-0.359 0.208-0.103 0.096-0.182 0.209-0.233 0.331-0.058 0.14-0.087 0.288-0.084 0.437-0.002 0.151 0.026 0.301 0.084 0.444 0.050 0.122 0.128 0.233 0.229 0.329 0.094 0.089 0.211 0.159 0.342 0.204 0.135 0.048 0.279 0.072 0.425 0.070 0.084 0.001 0.168-0.004 0.251-0.014 0.136-0.014 0.266-0.055 0.381-0.118 0.058-0.033 0.112-0.069 0.163-0.109 0.021-0.017 0.049-0.027 0.078-0.028v0z"></path>
<path d="M10.272 30.215c0.003 0.187-0.035 0.373-0.111 0.548-0.067 0.159-0.173 0.304-0.31 0.425s-0.304 0.217-0.487 0.279c-0.404 0.132-0.85 0.132-1.253 0-0.182-0.064-0.347-0.159-0.484-0.28-0.137-0.124-0.244-0.27-0.313-0.43-0.148-0.355-0.148-0.742 0-1.097 0.070-0.16 0.177-0.307 0.313-0.431 0.138-0.117 0.303-0.209 0.484-0.269 0.403-0.134 0.85-0.134 1.253 0 0.183 0.063 0.349 0.159 0.486 0.28 0.136 0.122 0.241 0.267 0.311 0.424 0.076 0.176 0.114 0.363 0.111 0.551zM9.839 30.215c0.003-0.149-0.023-0.298-0.078-0.44-0.046-0.122-0.121-0.234-0.221-0.329-0.097-0.090-0.216-0.161-0.348-0.208-0.293-0.096-0.618-0.096-0.911 0-0.133 0.046-0.252 0.117-0.348 0.208-0.101 0.095-0.177 0.207-0.223 0.329-0.105 0.287-0.105 0.594 0 0.881 0.047 0.122 0.122 0.234 0.223 0.329 0.097 0.090 0.216 0.16 0.348 0.206 0.294 0.094 0.617 0.094 0.911 0 0.133-0.046 0.252-0.116 0.348-0.206 0.099-0.096 0.174-0.208 0.221-0.329 0.055-0.142 0.082-0.291 0.078-0.44v0z"></path>
<path d="M13.521 30.676l0.043 0.099c0.017-0.035 0.031-0.067 0.047-0.099 0.016-0.033 0.034-0.065 0.054-0.097l1.053-1.636c0.021-0.028 0.039-0.046 0.060-0.051 0.028-0.007 0.057-0.010 0.086-0.009h0.311v2.661h-0.369v-1.956c0-0.025 0-0.053 0-0.083-0.002-0.030-0.002-0.061 0-0.092l-1.059 1.659c-0.013 0.025-0.035 0.046-0.062 0.060s-0.058 0.022-0.090 0.022h-0.060c-0.032 0-0.064-0.007-0.091-0.022s-0.049-0.036-0.062-0.061l-1.090-1.669c0 0.032 0 0.063 0 0.095s0 0.060 0 0.085v1.956h-0.357v-2.655h0.311c0.029-0.002 0.059 0.002 0.087 0.009 0.025 0.011 0.046 0.029 0.058 0.051l1.076 1.638c0.021 0.030 0.039 0.062 0.054 0.095v0z"></path>
<path d="M17.484 30.544v0.997h-0.412v-2.657h0.919c0.174-0.003 0.347 0.017 0.513 0.058 0.133 0.032 0.257 0.089 0.363 0.165 0.092 0.072 0.162 0.161 0.206 0.261 0.049 0.108 0.072 0.224 0.070 0.34 0.002 0.116-0.024 0.232-0.076 0.34-0.049 0.102-0.126 0.193-0.223 0.266-0.106 0.080-0.23 0.14-0.365 0.176-0.16 0.044-0.328 0.065-0.497 0.062l-0.499-0.007zM17.484 30.259h0.499c0.108 0.001 0.216-0.012 0.319-0.041 0.085-0.025 0.164-0.063 0.231-0.114 0.062-0.049 0.11-0.109 0.14-0.176 0.034-0.071 0.051-0.147 0.049-0.224 0.005-0.074-0.009-0.148-0.041-0.217s-0.081-0.131-0.144-0.181c-0.157-0.105-0.355-0.156-0.554-0.143h-0.499v1.095z"></path>
<path d="M23.024 31.544h-0.326c-0.033 0.001-0.065-0.008-0.091-0.025-0.023-0.017-0.042-0.038-0.054-0.062l-0.28-0.643h-1.408l-0.291 0.643c-0.011 0.023-0.028 0.044-0.052 0.060-0.026 0.018-0.059 0.027-0.093 0.026h-0.326l1.237-2.661h0.429l1.253 2.661zM20.984 30.556h1.162l-0.491-1.083c-0.037-0.081-0.068-0.165-0.093-0.25l-0.047 0.139c-0.014 0.042-0.031 0.081-0.045 0.113l-0.486 1.081z"></path>
<path d="M24.805 28.896c0.025 0.012 0.046 0.028 0.062 0.047l1.803 2.006c0-0.032 0-0.063 0-0.093s0-0.060 0-0.088v-1.884h0.369v2.661h-0.206c-0.029 0.001-0.058-0.005-0.084-0.016-0.026-0.013-0.048-0.029-0.066-0.049l-1.801-2.004c0.002 0.030 0.002 0.061 0 0.092 0 0.030 0 0.056 0 0.081v1.897h-0.369v-2.661h0.218c0.026-0.001 0.051 0.004 0.074 0.012v0z"></path>
<path d="M30.077 30.486v1.057h-0.412v-1.057l-1.14-1.603h0.369c0.032-0.002 0.063 0.006 0.089 0.023 0.023 0.017 0.041 0.037 0.056 0.060l0.713 1.034c0.029 0.044 0.054 0.084 0.074 0.123s0.037 0.076 0.052 0.113l0.054-0.114c0.020-0.042 0.043-0.082 0.070-0.122l0.703-1.041c0.015-0.021 0.033-0.040 0.054-0.056 0.024-0.018 0.056-0.028 0.089-0.026h0.373l-1.142 1.61z"></path>
<path d="M13.316 24.418c0.179 0.019 0.361 0.035 0.544 0.049 2.781-1.063 5.134-2.803 6.764-5.002s2.466-4.76 2.402-7.362l-3.065-2.619c0.623 2.771 0.332 5.635-0.842 8.272s-3.183 4.944-5.803 6.661v0z"></path>
<path d="M12.222 24.296l0.082 0.014c2.8-1.711 4.935-4.101 6.128-6.859s1.391-5.76 0.566-8.616l-4.365-3.73c1.766 3.066 2.476 6.497 2.049 9.894s-1.974 6.621-4.461 9.297v0z"></path>
<path d="M27.027 15.178c-0.742 2.86-2.543 5.438-5.136 7.354-0.757 0.562-1.574 1.064-2.44 1.497 2.112-0.53 4.053-1.468 5.673-2.74s2.877-2.846 3.674-4.599l-1.77-1.511z"></path>
<path d="M26.332 14.757l-2.521-2.154c-0.048 2.455-0.865 4.855-2.366 6.949s-3.631 3.807-6.169 4.96h0.012c0.566-0 1.131-0.029 1.692-0.086 2.372-0.827 4.467-2.143 6.098-3.83s2.749-3.693 3.253-5.839v0z"></path>
<path d="M12.587 3.533l-3.007-2.573c-2.688 0.888-5 2.448-6.633 4.477s-2.511 4.432-2.52 6.894v0c0.010 2.721 1.082 5.361 3.046 7.503s4.708 3.663 7.797 4.322c2.758-2.871 4.373-6.419 4.61-10.127s-0.917-7.385-3.293-10.496v0z"></path>
<path d="M33.28 14.361c-0.011-3.228-1.517-6.321-4.188-8.604s-6.292-3.569-10.070-3.578v0c-1.746-0.002-3.477 0.274-5.105 0.812l18.411 15.731c0.63-1.391 0.953-2.869 0.952-4.36v0z"></path>
</symbol>

<symbol id="icon-foster_peters" viewBox="0 0 64 32">
<path d="M10.298 10.307h-0.002c-1.781 0-3.225 1.302-3.225 2.908v0.002c0 1.606 1.444 2.908 3.225 2.908h0.002c1.781 0 3.225-1.302 3.225-2.908v-0.002c0-1.606-1.444-2.908-3.225-2.908z"></path>
<path d="M34.105 9.377c-0.005-2.231-0.99-4.369-2.739-5.946s-4.12-2.466-6.594-2.471v0c-2.475 0.004-4.847 0.892-6.597 2.47s-2.736 3.716-2.741 5.947v12.301c0 0 18.669-1.875 18.671-12.299v-0.002z"></path>
<path d="M0.533 25.715c0.004 1.552 0.69 3.040 1.907 4.137s2.867 1.716 4.588 1.721c1.721-0.004 3.37-0.623 4.587-1.72s1.903-2.584 1.908-4.136v-8.559c0 0-12.991 1.305-12.991 8.557zM7.029 27.249c-0.336 0-0.665-0.090-0.945-0.258s-0.498-0.408-0.626-0.688-0.162-0.589-0.097-0.886c0.066-0.297 0.228-0.571 0.465-0.785s0.541-0.361 0.871-0.42c0.33-0.059 0.672-0.029 0.983 0.087s0.576 0.313 0.763 0.565c0.187 0.252 0.287 0.549 0.287 0.852 0.001 0.202-0.043 0.402-0.128 0.589s-0.21 0.356-0.368 0.499-0.346 0.257-0.553 0.334c-0.207 0.077-0.428 0.117-0.652 0.117v-0.006z"></path>
<path d="M18.908 24.278v3.185h-0.656v-3.185h0.656zM20.177 25.639v0.512h-1.448v-0.512h1.448zM20.33 24.278v0.514h-1.601v-0.514h1.601zM23.327 25.796v0.151c0 0.242-0.033 0.459-0.098 0.652s-0.158 0.357-0.278 0.492c-0.12 0.134-0.262 0.237-0.429 0.308-0.165 0.071-0.348 0.107-0.549 0.107-0.2 0-0.383-0.036-0.549-0.107-0.165-0.071-0.308-0.174-0.429-0.308-0.121-0.136-0.215-0.3-0.282-0.492-0.066-0.193-0.098-0.41-0.098-0.652v-0.151c0-0.244 0.033-0.461 0.098-0.652 0.066-0.192 0.158-0.356 0.278-0.492 0.121-0.136 0.264-0.239 0.429-0.311 0.166-0.071 0.349-0.107 0.549-0.107 0.201 0 0.384 0.036 0.549 0.107 0.166 0.071 0.309 0.175 0.429 0.311 0.121 0.136 0.214 0.3 0.28 0.492 0.067 0.191 0.101 0.408 0.101 0.652zM22.664 25.947v-0.155c0-0.169-0.015-0.318-0.046-0.446s-0.076-0.236-0.136-0.324-0.133-0.153-0.219-0.197c-0.086-0.045-0.184-0.068-0.295-0.068s-0.209 0.023-0.295 0.068c-0.085 0.044-0.157 0.109-0.217 0.197-0.058 0.087-0.103 0.195-0.133 0.324s-0.046 0.277-0.046 0.446v0.155c0 0.168 0.015 0.316 0.046 0.446 0.031 0.128 0.076 0.237 0.136 0.326 0.060 0.087 0.133 0.154 0.219 0.199s0.185 0.068 0.295 0.068 0.209-0.023 0.295-0.068c0.086-0.045 0.158-0.112 0.217-0.199 0.058-0.089 0.103-0.198 0.133-0.326 0.031-0.13 0.046-0.279 0.046-0.446zM25.457 26.629c0-0.057-0.009-0.108-0.026-0.153-0.016-0.047-0.047-0.089-0.092-0.127-0.045-0.039-0.109-0.078-0.19-0.116s-0.187-0.077-0.317-0.118c-0.144-0.047-0.281-0.099-0.411-0.158-0.128-0.058-0.242-0.126-0.341-0.203-0.098-0.079-0.175-0.17-0.232-0.273-0.055-0.104-0.083-0.224-0.083-0.361 0-0.133 0.029-0.253 0.087-0.361 0.058-0.109 0.14-0.203 0.245-0.28 0.105-0.079 0.229-0.139 0.372-0.182 0.144-0.042 0.303-0.063 0.475-0.063 0.235 0 0.44 0.042 0.615 0.127s0.311 0.2 0.407 0.348c0.098 0.147 0.147 0.316 0.147 0.505h-0.652c0-0.093-0.020-0.175-0.059-0.245-0.038-0.071-0.096-0.128-0.175-0.168-0.077-0.041-0.175-0.061-0.293-0.061-0.114 0-0.209 0.017-0.284 0.053-0.076 0.034-0.133 0.079-0.171 0.138-0.038 0.057-0.057 0.121-0.057 0.192 0 0.054 0.013 0.103 0.039 0.147 0.028 0.044 0.069 0.085 0.123 0.123s0.12 0.074 0.199 0.107c0.079 0.034 0.17 0.066 0.273 0.098 0.174 0.053 0.326 0.112 0.457 0.177 0.133 0.066 0.244 0.139 0.333 0.221s0.156 0.174 0.201 0.278c0.045 0.104 0.068 0.221 0.068 0.352 0 0.139-0.027 0.262-0.081 0.372s-0.132 0.202-0.234 0.278-0.224 0.133-0.365 0.173c-0.141 0.039-0.3 0.059-0.475 0.059-0.158 0-0.313-0.020-0.466-0.061-0.153-0.042-0.292-0.106-0.418-0.19-0.124-0.085-0.223-0.192-0.297-0.324s-0.112-0.287-0.112-0.466h0.658c0 0.099 0.015 0.183 0.046 0.252s0.074 0.124 0.129 0.166c0.057 0.042 0.124 0.073 0.201 0.092 0.079 0.019 0.165 0.028 0.258 0.028 0.114 0 0.207-0.016 0.28-0.048 0.074-0.032 0.129-0.077 0.164-0.133 0.036-0.057 0.055-0.121 0.055-0.193zM27.984 24.278v3.185h-0.654v-3.185h0.654zM28.964 24.278v0.514h-2.599v-0.514h2.599zM31.475 26.951v0.512h-1.695v-0.512h1.695zM29.994 24.278v3.185h-0.656v-3.185h0.656zM31.254 25.575v0.499h-1.474v-0.499h1.474zM31.473 24.278v0.514h-1.693v-0.514h1.693zM31.858 24.278h1.188c0.244 0 0.453 0.036 0.628 0.109 0.176 0.073 0.312 0.181 0.407 0.324s0.142 0.319 0.142 0.527c0 0.171-0.029 0.317-0.087 0.44-0.057 0.121-0.138 0.222-0.243 0.304-0.104 0.080-0.225 0.144-0.365 0.192l-0.208 0.109h-1.033l-0.004-0.512h0.768c0.115 0 0.211-0.020 0.287-0.061s0.133-0.098 0.171-0.171c0.039-0.073 0.059-0.157 0.059-0.254 0-0.102-0.019-0.19-0.057-0.265s-0.096-0.131-0.173-0.171c-0.077-0.039-0.174-0.059-0.291-0.059h-0.532v2.671h-0.656v-3.185zM33.639 27.463l-0.726-1.42 0.693-0.004 0.735 1.393v0.031h-0.702zM37.084 26.328h-0.812v-0.512h0.812c0.125 0 0.227-0.020 0.306-0.061 0.079-0.042 0.136-0.101 0.173-0.175s0.055-0.158 0.055-0.252c0-0.095-0.018-0.183-0.055-0.265s-0.094-0.147-0.173-0.197c-0.079-0.050-0.181-0.074-0.306-0.074h-0.584v2.671h-0.656v-3.185h1.24c0.249 0 0.463 0.045 0.641 0.136 0.179 0.089 0.316 0.212 0.411 0.37s0.142 0.338 0.142 0.54c0 0.206-0.047 0.384-0.142 0.534s-0.232 0.266-0.411 0.348c-0.178 0.082-0.391 0.122-0.641 0.122zM40.868 26.951v0.512h-1.695v-0.512h1.695zM39.387 24.278v3.185h-0.656v-3.185h0.656zM40.647 25.575v0.499h-1.474v-0.499h1.474zM40.866 24.278v0.514h-1.693v-0.514h1.693zM42.719 24.278v3.185h-0.654v-3.185h0.654zM43.699 24.278v0.514h-2.599v-0.514h2.599zM46.21 26.951v0.512h-1.695v-0.512h1.695zM44.729 24.278v3.185h-0.656v-3.185h0.656zM45.989 25.575v0.499h-1.474v-0.499h1.474zM46.208 24.278v0.514h-1.693v-0.514h1.693zM46.593 24.278h1.188c0.244 0 0.453 0.036 0.628 0.109 0.176 0.073 0.312 0.181 0.407 0.324s0.142 0.319 0.142 0.527c0 0.171-0.029 0.317-0.087 0.44-0.057 0.121-0.138 0.222-0.243 0.304-0.103 0.080-0.225 0.144-0.365 0.192l-0.208 0.109h-1.032l-0.004-0.512h0.768c0.115 0 0.211-0.020 0.286-0.061s0.133-0.098 0.171-0.171c0.039-0.073 0.059-0.157 0.059-0.254 0-0.102-0.019-0.19-0.057-0.265s-0.096-0.131-0.173-0.171c-0.077-0.039-0.174-0.059-0.291-0.059h-0.532v2.671h-0.656v-3.185zM48.374 27.463l-0.726-1.42 0.693-0.004 0.735 1.393v0.031h-0.702zM51.121 26.629c0-0.057-0.009-0.108-0.026-0.153-0.016-0.047-0.047-0.089-0.092-0.127-0.045-0.039-0.109-0.078-0.19-0.116s-0.187-0.077-0.317-0.118c-0.144-0.047-0.282-0.099-0.411-0.158-0.128-0.058-0.242-0.126-0.341-0.203-0.098-0.079-0.175-0.17-0.232-0.273-0.055-0.104-0.083-0.224-0.083-0.361 0-0.133 0.029-0.253 0.088-0.361 0.058-0.109 0.14-0.203 0.245-0.28 0.105-0.079 0.229-0.139 0.372-0.182 0.144-0.042 0.303-0.063 0.475-0.063 0.235 0 0.44 0.042 0.615 0.127s0.311 0.2 0.407 0.348c0.098 0.147 0.147 0.316 0.147 0.505h-0.652c0-0.093-0.020-0.175-0.059-0.245-0.038-0.071-0.096-0.128-0.175-0.168-0.077-0.041-0.175-0.061-0.293-0.061-0.114 0-0.209 0.017-0.284 0.053-0.076 0.034-0.133 0.079-0.171 0.138-0.038 0.057-0.057 0.121-0.057 0.192 0 0.054 0.013 0.103 0.039 0.147 0.028 0.044 0.068 0.085 0.122 0.123s0.12 0.074 0.199 0.107c0.079 0.034 0.17 0.066 0.273 0.098 0.174 0.053 0.326 0.112 0.457 0.177 0.133 0.066 0.244 0.139 0.332 0.221s0.156 0.174 0.201 0.278c0.045 0.104 0.068 0.221 0.068 0.352 0 0.139-0.027 0.262-0.081 0.372s-0.132 0.202-0.234 0.278c-0.102 0.076-0.224 0.133-0.365 0.173s-0.3 0.059-0.475 0.059c-0.158 0-0.313-0.020-0.466-0.061-0.153-0.042-0.292-0.106-0.418-0.19-0.124-0.085-0.223-0.192-0.297-0.324s-0.112-0.287-0.112-0.466h0.658c0 0.099 0.015 0.183 0.046 0.252s0.074 0.124 0.129 0.166c0.057 0.042 0.124 0.073 0.201 0.092 0.079 0.019 0.165 0.028 0.258 0.028 0.114 0 0.207-0.016 0.28-0.048 0.074-0.032 0.129-0.077 0.164-0.133 0.036-0.057 0.055-0.121 0.055-0.193z"></path>
</symbol>

<symbol id="icon-tag_line" viewBox="0 0 67 32">
<path d="M34.071 14.81c-0.311-0.414-0.46-0.902-0.424-1.394v-2.022c0-0.62 0.141-1.091 0.422-1.413s0.764-0.483 1.449-0.481c0.644 0 1.1 0.137 1.37 0.411 0.295 0.35 0.438 0.778 0.405 1.209v0.475h-1.151v-0.481c0.004-0.158-0.007-0.315-0.033-0.471-0.017-0.107-0.075-0.205-0.164-0.28-0.118-0.080-0.267-0.119-0.417-0.109-0.158-0.010-0.314 0.031-0.439 0.115-0.1 0.082-0.167 0.191-0.191 0.309-0.033 0.165-0.048 0.332-0.045 0.5v2.454c-0.018 0.237 0.033 0.473 0.148 0.689 0.057 0.073 0.137 0.131 0.23 0.167s0.196 0.050 0.297 0.039c0.147 0.011 0.294-0.029 0.407-0.111 0.094-0.080 0.154-0.185 0.172-0.298 0.027-0.163 0.039-0.327 0.036-0.492v-0.498h1.151v0.454c0.032 0.45-0.108 0.896-0.398 1.271-0.265 0.3-0.715 0.45-1.378 0.45s-1.163-0.16-1.447-0.494z"></path>
<path d="M38.864 14.831c-0.291-0.315-0.436-0.773-0.436-1.38v-2.127c0-0.601 0.145-1.055 0.436-1.364s0.777-0.462 1.459-0.461c0.677 0 1.161 0.154 1.451 0.461 0.291 0.309 0.438 0.763 0.438 1.364v2.127c0 0.601-0.148 1.061-0.443 1.378s-0.777 0.475-1.447 0.475-1.165-0.16-1.459-0.473zM40.858 14.321c0.104-0.197 0.151-0.413 0.138-0.629v-2.604c0.013-0.212-0.033-0.424-0.136-0.617-0.058-0.075-0.14-0.133-0.235-0.17s-0.2-0.049-0.303-0.036c-0.103-0.012-0.209 0-0.304 0.037s-0.178 0.095-0.237 0.169c-0.105 0.193-0.152 0.405-0.138 0.617v2.616c-0.014 0.216 0.033 0.432 0.138 0.629 0.067 0.066 0.15 0.12 0.243 0.156s0.194 0.055 0.296 0.055c0.102 0 0.203-0.019 0.296-0.055s0.176-0.090 0.243-0.156v-0.012z"></path>
<path d="M43.596 9.562h1.239l0.932 3.924 0.953-3.924h1.206l0.122 5.663h-0.891l-0.095-3.936-0.92 3.936h-0.715l-0.953-3.95-0.088 3.95h-0.901l0.112-5.663z"></path>
<path d="M49.438 9.562h1.931c1.112 0 1.668 0.536 1.668 1.608 0 1.027-0.586 1.54-1.757 1.538h-0.658v2.517h-1.192l0.007-5.663zM51.087 11.983c0.118 0.013 0.237 0.004 0.35-0.027s0.217-0.083 0.305-0.152c0.137-0.191 0.197-0.416 0.172-0.639 0.006-0.173-0.013-0.345-0.057-0.514-0.017-0.056-0.047-0.109-0.088-0.155s-0.092-0.085-0.151-0.114c-0.165-0.069-0.348-0.1-0.532-0.091h-0.462v1.692h0.462z"></path>
<path d="M54.755 9.562h1.28l1.313 5.663h-1.111l-0.26-1.306h-1.142l-0.267 1.306h-1.127l1.313-5.663zM55.849 13.264l-0.446-2.377-0.446 2.377h0.891z"></path>
<path d="M58.409 9.562h0.834l1.597 3.231v-3.231h0.989v5.663h-0.794l-1.606-3.372v3.372h-1.022l0.002-5.663z"></path>
<path d="M64.145 13.066l-1.328-3.496h1.118l0.81 2.246 0.76-2.246h1.094l-1.311 3.496v2.159h-1.144v-2.159z"></path>
<path d="M35.911 17.701v0.296h-0.972v2.301h-0.408v-2.301h-0.977v-0.296h2.357z"></path>
<path d="M38.959 20.299h-0.315c-0.032 0.002-0.063-0.007-0.088-0.025-0.024-0.015-0.042-0.036-0.053-0.060l-0.281-0.617h-1.349l-0.281 0.617c-0.008 0.026-0.023 0.050-0.043 0.070-0.025 0.017-0.056 0.026-0.088 0.025h-0.315l1.192-2.597h0.415l1.206 2.587zM36.985 19.335h1.125l-0.477-1.057c-0.035-0.080-0.065-0.162-0.088-0.245-0.017 0.049-0.031 0.097-0.045 0.138l-0.043 0.109-0.472 1.055z"></path>
<path d="M41.013 20.044c0.075 0.003 0.149 0.003 0.224 0 0.064-0.006 0.128-0.016 0.191-0.031 0.058-0.012 0.116-0.028 0.172-0.047 0.052-0.018 0.105-0.041 0.16-0.064v-0.584h-0.477c-0.012 0.001-0.024-0.001-0.035-0.005s-0.021-0.009-0.030-0.016c-0.008-0.006-0.014-0.013-0.018-0.021s-0.006-0.017-0.006-0.026v-0.2h0.925v0.995c-0.075 0.047-0.155 0.088-0.238 0.123-0.085 0.036-0.173 0.066-0.265 0.088-0.097 0.025-0.197 0.043-0.298 0.053-0.115 0.011-0.232 0.017-0.348 0.017-0.206 0.002-0.41-0.031-0.601-0.097-0.178-0.062-0.341-0.154-0.477-0.271-0.133-0.118-0.237-0.258-0.307-0.411-0.075-0.172-0.112-0.355-0.11-0.539-0.002-0.185 0.034-0.369 0.107-0.543 0.069-0.154 0.173-0.294 0.307-0.411 0.136-0.117 0.298-0.209 0.477-0.269 0.204-0.066 0.421-0.099 0.639-0.097 0.111-0 0.222 0.008 0.331 0.023 0.097 0.014 0.192 0.036 0.284 0.066 0.083 0.027 0.163 0.061 0.238 0.103 0.073 0.041 0.142 0.086 0.207 0.136l-0.114 0.16c-0.009 0.015-0.022 0.027-0.039 0.036s-0.035 0.013-0.054 0.014c-0.026-0.001-0.052-0.008-0.074-0.021-0.036-0.016-0.074-0.037-0.117-0.062-0.051-0.027-0.104-0.051-0.16-0.070-0.071-0.025-0.144-0.044-0.219-0.058-0.1-0.016-0.201-0.023-0.303-0.023-0.157-0.002-0.313 0.023-0.46 0.072-0.133 0.046-0.252 0.116-0.35 0.206-0.099 0.093-0.174 0.203-0.222 0.323-0.106 0.281-0.106 0.584 0 0.866 0.052 0.122 0.133 0.234 0.238 0.327 0.098 0.089 0.216 0.159 0.348 0.206 0.151 0.045 0.312 0.062 0.472 0.052z"></path>
<path d="M44.812 20.003h1.301v0.296h-1.699v-2.597h0.407l-0.010 2.301z"></path>
<path d="M47.467 20.299h-0.408v-2.597h0.408v2.597z"></path>
<path d="M48.983 17.714c0.024 0.012 0.045 0.028 0.062 0.047l1.742 1.958c-0.002-0.031-0.002-0.062 0-0.093 0-0.029 0-0.058 0-0.084v-1.851h0.355v2.608h-0.205c-0.030 0.002-0.061-0.003-0.088-0.014-0.025-0.013-0.047-0.030-0.064-0.049l-1.74-1.956c0 0.031 0 0.060 0 0.088s0 0.056 0 0.080v1.851h-0.341v-2.598h0.212c0.023 0 0.046 0.004 0.067 0.012z"></path>
<path d="M54.143 17.701v0.286h-1.444v0.858h1.17v0.276h-1.17v0.886h1.444v0.286h-1.864v-2.591h1.864z"></path>
<path d="M11.437 1.661l18.096 4.434v15.537l-18.096-4.432v-15.539zM10.276 0.337v17.618l20.415 5.003v-17.616l-20.415-5.006z"></path>
<path d="M21.218 31.137l-20.418-5.008v-17.616l20.418 5.006v17.618z"></path>
<path d="M10.614 1.462l17.86 4.378-7.596 6.556-17.863-4.38 7.598-6.554zM10.276 0.337l-9.476 8.177 20.418 5.005 9.473-8.177-20.415-5.005z"></path>
<path d="M22.366 30.146l8.325-7.185-8.325-2.042v9.227z"></path>
</symbol>

<symbol id="icon-yaco" viewBox="0 0 28 32">
<path d="M4.073 0.485l4.757 4.532-8.83-0.005v21.987h23.079v-8.407l4.752 4.527v-22.634h-23.758zM22.87 18.060l-13.487-12.85h13.487v12.85zM18.682 23.783h-15.030v-14.788h1.062v13.786h13.968v1.001zM6.649 30.587l0.56-1.152h0.461l-0.812 1.525v0.888h-0.419v-0.888l-0.812-1.525h0.462l0.56 1.152zM8.714 29.435h0.099l0.911 2.413h-0.438l-0.195-0.565h-0.934l-0.195 0.565h-0.436l0.908-2.413h0.278zM8.272 30.953h0.706l-0.354-1.024-0.353 1.024zM11.188 30.553c-0.018-0.023-0.036-0.046-0.052-0.067-0.062-0.082-0.11-0.161-0.144-0.237-0.034-0.077-0.051-0.157-0.051-0.239 0-0.126 0.026-0.234 0.078-0.325s0.125-0.16 0.22-0.209c0.095-0.050 0.206-0.075 0.333-0.075 0.123 0 0.228 0.025 0.316 0.075 0.089 0.049 0.158 0.113 0.206 0.194 0.049 0.081 0.073 0.169 0.073 0.265 0 0.076-0.014 0.146-0.041 0.209s-0.066 0.12-0.114 0.172c-0.049 0.052-0.105 0.101-0.169 0.148l-0.168 0.122 0.478 0.564c0.016-0.031 0.030-0.064 0.043-0.098 0.041-0.106 0.061-0.224 0.061-0.353h0.345c0 0.117-0.012 0.228-0.035 0.333-0.022 0.105-0.058 0.202-0.108 0.292-0.020 0.037-0.043 0.073-0.068 0.106l0.354 0.417h-0.462l-0.14-0.165c-0.076 0.058-0.158 0.103-0.248 0.135-0.117 0.042-0.242 0.063-0.375 0.063-0.16 0-0.299-0.029-0.416-0.088s-0.208-0.139-0.272-0.242c-0.063-0.103-0.094-0.22-0.094-0.353 0-0.098 0.020-0.184 0.061-0.259s0.097-0.145 0.167-0.209c0.065-0.059 0.14-0.119 0.223-0.178zM11.386 30.796l-0.050 0.036c-0.058 0.047-0.102 0.093-0.131 0.137-0.028 0.043-0.046 0.083-0.055 0.119s-0.013 0.068-0.013 0.096c0 0.071 0.015 0.135 0.045 0.192 0.031 0.058 0.076 0.103 0.134 0.138 0.060 0.033 0.132 0.050 0.217 0.050 0.092 0 0.181-0.020 0.267-0.061 0.043-0.021 0.084-0.046 0.123-0.076l-0.537-0.631zM11.481 30.355l0.148-0.1c0.070-0.046 0.119-0.092 0.149-0.136 0.030-0.045 0.045-0.102 0.045-0.169 0-0.058-0.022-0.11-0.066-0.159s-0.107-0.073-0.187-0.073c-0.056 0-0.104 0.013-0.143 0.040-0.039 0.025-0.068 0.060-0.088 0.103-0.019 0.042-0.028 0.089-0.028 0.141 0 0.050 0.013 0.101 0.038 0.154 0.025 0.052 0.060 0.107 0.104 0.164 0.009 0.011 0.018 0.023 0.028 0.035zM15.703 31.063c-0.013 0.158-0.057 0.299-0.133 0.423-0.075 0.123-0.181 0.219-0.316 0.29s-0.301 0.106-0.495 0.106c-0.149 0-0.283-0.026-0.403-0.079-0.119-0.054-0.221-0.13-0.307-0.229-0.085-0.099-0.15-0.219-0.196-0.36-0.044-0.14-0.066-0.297-0.066-0.471v-0.201c0-0.173 0.023-0.33 0.068-0.471 0.046-0.14 0.113-0.26 0.199-0.36 0.086-0.101 0.189-0.177 0.31-0.23 0.121-0.053 0.258-0.079 0.409-0.079 0.192 0 0.355 0.035 0.487 0.106s0.235 0.168 0.308 0.293c0.074 0.125 0.119 0.268 0.136 0.429h-0.414c-0.011-0.104-0.035-0.193-0.073-0.267-0.036-0.074-0.091-0.13-0.162-0.169-0.072-0.040-0.166-0.060-0.282-0.060-0.095 0-0.178 0.018-0.249 0.053s-0.13 0.087-0.177 0.156c-0.047 0.069-0.083 0.153-0.108 0.254-0.023 0.099-0.035 0.213-0.035 0.341v0.204c0 0.122 0.010 0.232 0.031 0.331 0.022 0.098 0.055 0.183 0.099 0.253 0.045 0.071 0.103 0.125 0.172 0.164s0.153 0.058 0.25 0.058c0.118 0 0.214-0.019 0.287-0.056 0.074-0.038 0.13-0.092 0.167-0.164 0.039-0.073 0.064-0.162 0.076-0.267h0.414zM18.004 30.708v-0.133c0-0.182-0.024-0.345-0.073-0.489-0.047-0.145-0.116-0.268-0.204-0.37-0.088-0.103-0.194-0.181-0.317-0.234-0.123-0.054-0.259-0.081-0.408-0.081-0.148 0-0.283 0.027-0.406 0.081-0.122 0.053-0.227 0.131-0.317 0.234-0.088 0.102-0.157 0.225-0.206 0.37-0.049 0.144-0.073 0.307-0.073 0.489v0.133c0 0.182 0.024 0.346 0.073 0.49 0.050 0.145 0.119 0.268 0.209 0.37s0.195 0.18 0.317 0.234c0.123 0.053 0.258 0.079 0.406 0.079 0.149 0 0.285-0.026 0.408-0.079 0.123-0.054 0.228-0.132 0.315-0.234 0.088-0.102 0.156-0.225 0.204-0.37s0.071-0.308 0.071-0.49zM17.588 30.572v0.136c0 0.135-0.013 0.254-0.040 0.358-0.025 0.104-0.063 0.192-0.113 0.264-0.050 0.071-0.11 0.124-0.182 0.161-0.072 0.035-0.154 0.053-0.247 0.053-0.092 0-0.173-0.018-0.245-0.053-0.072-0.036-0.134-0.090-0.186-0.161-0.051-0.072-0.090-0.16-0.116-0.264s-0.040-0.223-0.040-0.358v-0.136c0-0.135 0.013-0.254 0.040-0.356 0.027-0.104 0.065-0.191 0.114-0.26 0.051-0.071 0.112-0.124 0.184-0.159s0.154-0.055 0.245-0.055c0.092 0 0.174 0.018 0.247 0.055s0.134 0.088 0.184 0.159c0.051 0.070 0.089 0.156 0.114 0.26 0.027 0.103 0.040 0.222 0.040 0.356z"></path>
</symbol>

<symbol id="icon-close" viewBox="0 0 32 32">
<path d="M32 3.223l-3.223-3.223-12.777 12.777-12.777-12.777-3.223 3.223 12.777 12.777-12.777 12.777 3.223 3.223 12.777-12.777 12.777 12.777 3.223-3.223-12.777-12.777 12.777-12.777z"></path>
</symbol>

<symbol id="icon-icon_send" viewBox="0 0 38 32">
<path d="M38.4 0l-38.4 18 12.272 3.788 18.928-14.788-14.397 16.186 0.012 0.004-0.014-0.004v8.814l6.882-6.691 8.718 2.691 6-28z"></path>
</symbol>

<symbol id="icon-phone" viewBox="0 0 32 32">
<path d="M28.865 21.822l-4.525-0.517c-1.087-0.125-2.155 0.249-2.921 1.015l-3.278 3.278c-5.041-2.565-9.174-6.68-11.739-11.739l3.296-3.296c0.766-0.766 1.14-1.835 1.015-2.921l-0.517-4.489c-0.214-1.799-1.728-3.153-3.545-3.153h-3.082c-2.013 0-3.687 1.675-3.563 3.687 0.944 15.213 13.111 27.362 28.306 28.306 2.013 0.125 3.687-1.55 3.687-3.563v-3.082c0.018-1.799-1.336-3.313-3.135-3.527z"></path>
</symbol>

<symbol id="icon-mail" viewBox="0 0 43 32">
<path d="M37.333 0h-32c-2.2 0-3.98 1.8-3.98 4l-0.020 24c0 2.2 1.8 4 4 4h32c2.2 0 4-1.8 4-4v-24c0-2.2-1.8-4-4-4zM36.533 8.5l-14.14 8.84c-0.64 0.4-1.48 0.4-2.12 0l-14.14-8.84c-0.5-0.32-0.8-0.86-0.8-1.44 0-1.34 1.46-2.14 2.6-1.44l13.4 8.38 13.4-8.38c1.14-0.7 2.6 0.1 2.6 1.44 0 0.58-0.3 1.12-0.8 1.44z"></path>
</symbol>

<symbol id="icon-user" viewBox="0 0 32 32">
<path d="M16 16c4.42 0 8-3.58 8-8s-3.58-8-8-8c-4.42 0-8 3.58-8 8s3.58 8 8 8zM16 20c-5.34 0-16 2.68-16 8v2c0 1.1 0.9 2 2 2h28c1.1 0 2-0.9 2-2v-2c0-5.32-10.66-8-16-8z"></path>
</symbol>

</defs>
</svg>
